<svg xmlns="http://www.w3.org/2000/svg" viewBox="0 0 64 64" shape-rendering="crispEdges">
  <rect x="0" y="0" width="64" height="64" fill="#0a0820"/>
  <rect x="12" y="0" width="40" height="4" fill="#d4a000" opacity="0.6"/>
  <rect x="8" y="2" width="8" height="4" fill="#d4a000" opacity="0.4"/>
  <rect x="48" y="2" width="8" height="4" fill="#d4a000" opacity="0.4"/>
  <rect x="14" y="6" width="36" height="22" fill="#d4cce4"/>
  <rect x="10" y="10" width="8" height="14" fill="#d4cce4"/>
  <rect x="46" y="10" width="8" height="14" fill="#d4cce4"/>
  <rect x="14" y="4" width="36" height="4" fill="#d4a000"/>
  <rect x="16" y="2" width="6" height="4" fill="#d4a000"/>
  <rect x="26" y="0" width="6" height="6" fill="#d4a000"/>
  <rect x="36" y="2" width="6" height="4" fill="#d4a000"/>
  <rect x="17" y="2" width="3" height="2" fill="#ff0000"/>
  <rect x="27" y="1" width="3" height="3" fill="#0044ff"/>
  <rect x="37" y="2" width="3" height="2" fill="#00aa00"/>
  <rect x="14" y="10" width="14" height="10" fill="#d4a000" opacity="0.7"/>
  <rect x="36" y="10" width="14" height="10" fill="#d4a000" opacity="0.7"/>
  <rect x="16" y="11" width="10" height="7" fill="#ffcc00"/>
  <rect x="38" y="11" width="10" height="7" fill="#ffcc00"/>
  <rect x="18" y="12" width="5" height="4" fill="#fff8cc"/>
  <rect x="40" y="12" width="5" height="4" fill="#fff8cc"/>
  <rect x="8" y="28" width="48" height="28" fill="#c8c0d8"/>
  <rect x="4" y="34" width="56" height="18" fill="#c8c0d8"/>
  <rect x="10" y="28" width="44" height="4" fill="#d4a000" opacity="0.4"/>
  <rect x="0" y="32" width="10" height="22" fill="#b8b0c8"/>
  <rect x="54" y="32" width="10" height="22" fill="#b8b0c8"/>
  <rect x="14" y="56" width="14" height="8" fill="#b8b0c8"/>
  <rect x="36" y="56" width="14" height="8" fill="#b8b0c8"/>
  <rect x="2" y="52" width="8" height="4" fill="#d4a000" opacity="0.2"/>
  <rect x="54" y="52" width="8" height="4" fill="#d4a000" opacity="0.2"/>
</svg>