<svg xmlns="http://www.w3.org/2000/svg" viewBox="0 0 64 64" width="64" height="64">
  <defs>
    <filter id="shadow" x="-20%" y="-20%" width="140%" height="140%">
      <feDropShadow dx="0" dy="1.5" stdDeviation="1.5" flood-opacity="0.35"/>
    </filter>
  </defs>
  <defs><filter id="glow" x="-40%" y="-40%" width="180%" height="180%">
      <feGaussianBlur stdDeviation="2.5" result="blur"/>
      <feFlood flood-color="#ffd54f" flood-opacity="0.5" result="color"/>
      <feComposite in="color" in2="blur" operator="in" result="glow"/>
      <feMerge><feMergeNode in="glow"/><feMergeNode in="SourceGraphic"/></feMerge>
    </filter>
  <radialGradient id="bg" cx="50%" cy="50%"><stop offset="0%" stop-color="#1a0010"/><stop offset="100%" stop-color="#030000"/></radialGradient>
  <radialGradient id="chaos" cx="50%" cy="50%"><stop offset="0%" stop-color="white"/><stop offset="25%" stop-color="#ffd54f"/><stop offset="55%" stop-color="#f44336"/><stop offset="100%" stop-color="#0d0010"/></radialGradient>
</defs>
<circle cx="32" cy="32" r="30" fill="url(#bg)"/>
<g filter="url(#glow)">
  <ellipse cx="32" cy="36" rx="22" ry="26" fill="url(#chaos)" opacity="0.8"/>
  <ellipse cx="32" cy="24" rx="16" ry="16" fill="#0d0010"/>
  <ellipse cx="32" cy="22" rx="16" ry="16" fill="url(#chaos)" opacity="0.9"/>
  <path d="M14,8 Q10,0 14,−4 Q14,8 20,12" fill="#ffd54f" opacity="0.9"/>
  <path d="M50,8 Q54,0 50,−4 Q50,8 44,12" fill="#ffd54f" opacity="0.9"/>
  <path d="M10,50 Q4,56 6,62 Q10,54 16,52" fill="#f44336" opacity="0.9"/>
  <path d="M54,50 Q60,56 58,62 Q54,54 48,52" fill="#f44336" opacity="0.9"/>
  <ellipse cx="26" cy="22" rx="5.5" ry="6.5" fill="white" opacity="0.95"/>
  <ellipse cx="38" cy="22" rx="5.5" ry="6.5" fill="white" opacity="0.95"/>
  <ellipse cx="26" cy="22" rx="2.5" ry="4" fill="#0d0010"/>
  <ellipse cx="38" cy="22" rx="2.5" ry="4" fill="#0d0010"/>
  <path d="M26,30 Q32,36 38,30" stroke="white" stroke-width="2" fill="none"/>
  <circle cx="32" cy="8" r="8" fill="white" opacity="0.7"/>
  <circle cx="32" cy="8" r="5" fill="#ffd54f"/>
  <circle cx="32" cy="8" r="2.5" fill="white"/>
</g>
</svg>