<svg xmlns="http://www.w3.org/2000/svg" viewBox="0 0 64 64" shape-rendering="crispEdges">
  <rect x="0" y="0" width="64" height="64" fill="#1a1400"/>
  <rect x="24" y="0" width="16" height="4" fill="#d4a000"/>
  <rect x="22" y="2" width="20" height="4" fill="#d4a000"/>
  <rect x="20" y="4" width="24" height="4" fill="#d4a000"/>
  <rect x="12" y="6" width="40" height="4" fill="#2a2400"/>
  <rect x="10" y="8" width="44" height="4" fill="#2a2400"/>
  <rect x="16" y="12" width="32" height="18" fill="#2a2400"/>
  <rect x="12" y="14" width="4" height="14" fill="#2a2400"/>
  <rect x="48" y="14" width="4" height="14" fill="#2a2400"/>
  <rect x="18" y="14" width="12" height="10" fill="#1a1400"/>
  <rect x="34" y="14" width="12" height="10" fill="#1a1400"/>
  <rect x="20" y="15" width="8" height="7" fill="#d4a000" opacity="0.8"/>
  <rect x="36" y="15" width="8" height="7" fill="#d4a000" opacity="0.8"/>
  <rect x="22" y="16" width="4" height="4" fill="#ffee88"/>
  <rect x="38" y="16" width="4" height="4" fill="#ffee88"/>
  <rect x="23" y="17" width="2" height="2" fill="#000"/>
  <rect x="39" y="17" width="2" height="2" fill="#000"/>
  <rect x="10" y="30" width="44" height="26" fill="#2a2400"/>
  <rect x="6" y="36" width="52" height="16" fill="#2a2400"/>
  <rect x="12" y="30" width="40" height="4" fill="#d4a000" opacity="0.5"/>
  <rect x="28" y="34" width="8" height="14" fill="#1a1400"/>
  <rect x="24" y="38" width="16" height="6" fill="#1a1400"/>
  <rect x="30" y="34" width="4" height="14" fill="#d4a000" opacity="0.5"/>
  <rect x="4" y="34" width="10" height="8" fill="#2a2400"/>
  <rect x="50" y="34" width="10" height="8" fill="#2a2400"/>
  <rect x="14" y="56" width="14" height="8" fill="#2a2400"/>
  <rect x="36" y="56" width="14" height="8" fill="#2a2400"/>
  <rect x="2" y="14" width="4" height="4" fill="#d4a000" opacity="0.3"/>
  <rect x="58" y="14" width="4" height="4" fill="#d4a000" opacity="0.3"/>
</svg>