<svg xmlns="http://www.w3.org/2000/svg" viewBox="0 0 64 64" width="64" height="64">
  <defs>
    <filter id="shadow" x="-20%" y="-20%" width="140%" height="140%">
      <feDropShadow dx="0" dy="1.5" stdDeviation="1.5" flood-opacity="0.35"/>
    </filter>
  </defs>
  <defs><filter id="glow" x="-40%" y="-40%" width="180%" height="180%">
      <feGaussianBlur stdDeviation="2.5" result="blur"/>
      <feFlood flood-color="#ffd54f" flood-opacity="0.5" result="color"/>
      <feComposite in="color" in2="blur" operator="in" result="glow"/>
      <feMerge><feMergeNode in="glow"/><feMergeNode in="SourceGraphic"/></feMerge>
    </filter>
  <radialGradient id="bg" cx="50%" cy="50%"><stop offset="0%" stop-color="#3d2800"/><stop offset="100%" stop-color="#0d0800"/></radialGradient>
  <radialGradient id="divine" cx="50%" cy="30%"><stop offset="0%" stop-color="white"/><stop offset="40%" stop-color="#ffd54f"/><stop offset="100%" stop-color="#f57f17"/></radialGradient>
</defs>
<circle cx="32" cy="32" r="30" fill="url(#bg)"/>
<circle cx="32" cy="32" r="26" fill="none" stroke="#ffd54f" stroke-width="0.5" opacity="0.3"/>
<g filter="url(#glow)">
  <ellipse cx="32" cy="40" rx="18" ry="20" fill="#e65100" opacity="0.8"/>
  <ellipse cx="32" cy="26" rx="15" ry="16" fill="url(#divine)"/>
  <ellipse cx="32" cy="26" rx="15" ry="16" fill="none" stroke="#ffd54f" stroke-width="1.5"/>
  <path d="M14,6 Q18,0 32,4 Q46,0 50,6 Q40,2 36,8 Q34,4 32,6 Q30,4 28,8 Q24,2 14,6 Z" fill="#ffd54f"/>
  <ellipse cx="27" cy="24" rx="5" ry="6" fill="white" opacity="0.95"/>
  <ellipse cx="37" cy="24" rx="5" ry="6" fill="white" opacity="0.95"/>
  <ellipse cx="27" cy="24" rx="2.5" ry="3.5" fill="#e65100"/>
  <ellipse cx="37" cy="24" rx="2.5" ry="3.5" fill="#e65100"/>
  <path d="M27,32 Q32,36 37,32" stroke="#ffd54f" stroke-width="2" fill="none"/>
  <circle cx="32" cy="10" r="6" fill="white"/>
  <circle cx="32" cy="10" r="3" fill="#ffd54f" opacity="0.9"/>
</g>
</svg>