<svg xmlns="http://www.w3.org/2000/svg" viewBox="0 0 64 64" shape-rendering="crispEdges">
  <rect x="0" y="0" width="64" height="64" fill="#0f0000"/>
  <rect x="10" y="4" width="8" height="10" fill="#1f0505"/>
  <rect x="16" y="2" width="8" height="10" fill="#1f0505"/>
  <rect x="28" y="0" width="8" height="12" fill="#1f0505"/>
  <rect x="36" y="2" width="8" height="10" fill="#1f0505"/>
  <rect x="46" y="4" width="8" height="10" fill="#1f0505"/>
  <rect x="10" y="12" width="44" height="24" fill="#1f0505"/>
  <rect x="6" y="16" width="52" height="16" fill="#1f0505"/>
  <rect x="10" y="16" width="14" height="10" fill="#000"/>
  <rect x="40" y="16" width="14" height="10" fill="#000"/>
  <rect x="12" y="17" width="10" height="7" fill="#ff2200" opacity="0.7"/>
  <rect x="42" y="17" width="10" height="7" fill="#ff2200" opacity="0.7"/>
  <rect x="14" y="18" width="6" height="4" fill="#ff4444"/>
  <rect x="44" y="18" width="6" height="4" fill="#ff4444"/>
  <rect x="16" y="19" width="3" height="2" fill="#ffff00"/>
  <rect x="46" y="19" width="3" height="2" fill="#ffff00"/>
  <rect x="22" y="28" width="20" height="6" fill="#000"/>
  <rect x="24" y="26" width="4" height="4" fill="#ff2200" opacity="0.5"/>
  <rect x="36" y="26" width="4" height="4" fill="#ff2200" opacity="0.5"/>
  <rect x="26" y="28" width="3" height="3" fill="#ff2200"/>
  <rect x="32" y="28" width="3" height="3" fill="#ff2200"/>
  <rect x="38" y="28" width="3" height="3" fill="#ff2200"/>
  <rect x="8" y="36" width="48" height="24" fill="#1f0505"/>
  <rect x="4" y="40" width="56" height="16" fill="#1f0505"/>
  <rect x="0" y="38" width="10" height="20" fill="#1f0505"/>
  <rect x="54" y="38" width="10" height="20" fill="#1f0505"/>
  <rect x="0" y="36" width="6" height="4" fill="#ff2200" opacity="0.3"/>
  <rect x="58" y="36" width="6" height="4" fill="#ff2200" opacity="0.3"/>
  <rect x="14" y="60" width="14" height="4" fill="#1f0505"/>
  <rect x="36" y="60" width="14" height="4" fill="#1f0505"/>
</svg>