<svg xmlns="http://www.w3.org/2000/svg" viewBox="0 0 64 64" shape-rendering="crispEdges">
  <rect x="0" y="0" width="64" height="64" fill="#6a1800"/>
  <rect x="44" y="32" width="18" height="5" fill="#aa2800"/>
  <rect x="48" y="24" width="14" height="10" fill="#aa2800"/>
  <rect x="52" y="18" width="10" height="8" fill="#ff6600" opacity="0.3"/>
  <rect x="20" y="6" width="6" height="22" fill="#aa2800" opacity="0.8"/>
  <rect x="22" y="6" width="16" height="4" fill="#aa2800" opacity="0.8"/>
  <rect x="32" y="8" width="14" height="4" fill="#aa2800" opacity="0.8"/>
  <rect x="10" y="24" width="38" height="24" fill="#aa2800"/>
  <rect x="6" y="28" width="44" height="16" fill="#aa2800"/>
  <rect x="12" y="32" width="24" height="14" fill="#ff6600" opacity="0.3"/>
  <rect x="2" y="16" width="24" height="18" fill="#aa2800"/>
  <rect x="0" y="20" width="6" height="12" fill="#aa2800"/>
  <rect x="12" y="8" width="4" height="10" fill="#aa2800" opacity="0.8"/>
  <rect x="18" y="6" width="4" height="12" fill="#aa2800" opacity="0.8"/>
  <rect x="4" y="18" width="12" height="10" fill="#ff6600" opacity="0.7"/>
  <rect x="6" y="19" width="8" height="7" fill="#ff8800"/>
  <rect x="7" y="20" width="4" height="4" fill="#000"/>
  <rect x="7" y="20" width="2" height="2" fill="#fff"/>
  <rect x="0" y="26" width="8" height="4" fill="#ff6600"/>
  <rect x="0" y="25" width="4" height="3" fill="#ff6600"/>
  <rect x="10" y="46" width="12" height="16" fill="#aa2800"/>
  <rect x="24" y="46" width="12" height="16" fill="#aa2800"/>
  <rect x="36" y="48" width="10" height="14" fill="#aa2800"/>
</svg>