<svg xmlns="http://www.w3.org/2000/svg" viewBox="0 0 64 64" shape-rendering="crispEdges">
  <rect x="0" y="0" width="64" height="64" fill="#2a2840"/>
  <rect x="16" y="4" width="32" height="6" fill="#c0c0c0"/>
  <rect x="12" y="8" width="40" height="4" fill="#c0c0c0"/>
  <rect x="14" y="12" width="36" height="16" fill="#3a3850"/>
  <rect x="12" y="14" width="4" height="12" fill="#3a3850"/>
  <rect x="48" y="14" width="4" height="12" fill="#3a3850"/>
  <rect x="18" y="16" width="28" height="8" fill="#111"/>
  <rect x="20" y="17" width="8" height="5" fill="#4488ff"/>
  <rect x="36" y="17" width="8" height="5" fill="#4488ff"/>
  <rect x="22" y="18" width="4" height="3" fill="#88aaff"/>
  <rect x="38" y="18" width="4" height="3" fill="#88aaff"/>
  <rect x="12" y="28" width="40" height="26" fill="#3a3850"/>
  <rect x="8" y="32" width="48" height="18" fill="#3a3850"/>
  <rect x="14" y="28" width="36" height="4" fill="#c0c0c0"/>
  <rect x="12" y="44" width="40" height="4" fill="#c0c0c0"/>
  <rect x="28" y="32" width="8" height="14" fill="#2a2840"/>
  <rect x="24" y="36" width="16" height="6" fill="#2a2840"/>
  <rect x="30" y="34" width="4" height="12" fill="#c0c0c0" opacity="0.4"/>
  <rect x="4" y="30" width="10" height="8" fill="#3a3850"/>
  <rect x="50" y="30" width="10" height="8" fill="#3a3850"/>
  <rect x="0" y="38" width="10" height="14" fill="#2a2840"/>
  <rect x="54" y="38" width="10" height="14" fill="#2a2840"/>
  <rect x="14" y="54" width="14" height="10" fill="#3a3850"/>
  <rect x="36" y="54" width="14" height="10" fill="#3a3850"/>
  <rect x="12" y="60" width="18" height="4" fill="#2a2840"/>
  <rect x="34" y="60" width="18" height="4" fill="#2a2840"/>
</svg>