<svg xmlns="http://www.w3.org/2000/svg" viewBox="0 0 64 64" shape-rendering="crispEdges">
  <rect x="0" y="0" width="64" height="64" fill="#0a0010"/>
  <rect x="18" y="0" width="28" height="6" fill="#1a0028"/>
  <rect x="28" y="0" width="8" height="8" fill="#4400aa" opacity="0.7"/>
  <rect x="14" y="8" width="36" height="22" fill="#ccccaa"/>
  <rect x="12" y="12" width="4" height="14" fill="#ccccaa"/>
  <rect x="48" y="12" width="4" height="14" fill="#ccccaa"/>
  <rect x="14" y="12" width="14" height="10" fill="#000"/>
  <rect x="36" y="12" width="14" height="10" fill="#000"/>
  <rect x="16" y="13" width="10" height="7" fill="#1a0028"/>
  <rect x="38" y="13" width="10" height="7" fill="#1a0028"/>
  <rect x="18" y="14" width="6" height="5" fill="#4400aa"/>
  <rect x="40" y="14" width="6" height="5" fill="#4400aa"/>
  <rect x="28" y="18" width="8" height="4" fill="#000"/>
  <rect x="18" y="24" width="28" height="4" fill="#aaa888"/>
  <rect x="20" y="22" width="4" height="6" fill="#ccccaa"/>
  <rect x="40" y="22" width="4" height="6" fill="#ccccaa"/>
  <rect x="10" y="30" width="44" height="30" fill="#1a0028"/>
  <rect x="6" y="36" width="52" height="20" fill="#1a0028"/>
  <rect x="12" y="30" width="40" height="4" fill="#4400aa" opacity="0.3"/>
  <rect x="50" y="4" width="4" height="52" fill="#1a0028" opacity="0.8"/>
  <rect x="48" y="2" width="8" height="6" fill="#4400aa" opacity="0.7"/>
  <rect x="50" y="0" width="4" height="4" fill="#4400aa"/>
  <rect x="8" y="34" width="8" height="18" fill="#ccccaa"/>
  <rect x="14" y="54" width="14" height="10" fill="#1a0028"/>
  <rect x="36" y="54" width="14" height="10" fill="#1a0028"/>
</svg>