<svg xmlns="http://www.w3.org/2000/svg" viewBox="0 0 64 64" width="64" height="64">
  <defs>
    <filter id="shadow" x="-20%" y="-20%" width="140%" height="140%">
      <feDropShadow dx="0" dy="1.5" stdDeviation="1.5" flood-opacity="0.35"/>
    </filter>
  </defs>
  <defs><filter id="glow" x="-40%" y="-40%" width="180%" height="180%">
      <feGaussianBlur stdDeviation="2.5" result="blur"/>
      <feFlood flood-color="#ab47bc" flood-opacity="0.5" result="color"/>
      <feComposite in="color" in2="blur" operator="in" result="glow"/>
      <feMerge><feMergeNode in="glow"/><feMergeNode in="SourceGraphic"/></feMerge>
    </filter>
  <radialGradient id="bg" cx="50%" cy="50%"><stop offset="0%" stop-color="#0d0028"/><stop offset="100%" stop-color="#030008"/></radialGradient>
  <linearGradient id="bone" x1="0" y1="0" x2="0" y2="1"><stop offset="0%" stop-color="#e8eaf6"/><stop offset="100%" stop-color="#9fa8da"/></linearGradient>
</defs>
<circle cx="32" cy="32" r="30" fill="url(#bg)"/>
<g filter="url(#glow)">
  <path d="M20,58 Q18,44 20,36 L16,18 Q22,14 28,20 L28,24 L36,24 L36,20 Q42,14 48,18 L44,36 Q46,44 44,58 Z" fill="#1a237e" opacity="0.9"/>
  <ellipse cx="32" cy="22" rx="13" ry="14" fill="url(#bone)"/>
  <ellipse cx="26" cy="21" rx="4.5" ry="5.5" fill="#1a237e"/>
  <ellipse cx="38" cy="21" rx="4.5" ry="5.5" fill="#1a237e"/>
  <ellipse cx="26" cy="20" rx="3" ry="3.5" fill="#ab47bc"/>
  <ellipse cx="38" cy="20" rx="3" ry="3.5" fill="#ab47bc"/>
  <rect x="27" y="29" width="3" height="4" rx="0.5" fill="#9fa8da"/>
  <rect x="31" y="29" width="2" height="4" rx="0.5" fill="#1a237e"/>
  <rect x="34" y="29" width="3" height="4" rx="0.5" fill="#9fa8da"/>
  <path d="M22,14 Q24,8 32,10 Q40,8 42,14" stroke="#ab47bc" stroke-width="2.5" fill="none"/>
  <circle cx="32" cy="6" r="6" fill="#ab47bc"/>
  <circle cx="32" cy="6" r="3" fill="white" opacity="0.6"/>
</g>
</svg>