<svg xmlns="http://www.w3.org/2000/svg" viewBox="0 0 64 64" width="64" height="64">
  <defs>
    <filter id="shadow" x="-20%" y="-20%" width="140%" height="140%">
      <feDropShadow dx="0" dy="1.5" stdDeviation="1.5" flood-opacity="0.35"/>
    </filter>
  </defs>
  <defs><filter id="glow" x="-40%" y="-40%" width="180%" height="180%">
      <feGaussianBlur stdDeviation="2.5" result="blur"/>
      <feFlood flood-color="#42a5f5" flood-opacity="0.5" result="color"/>
      <feComposite in="color" in2="blur" operator="in" result="glow"/>
      <feMerge><feMergeNode in="glow"/><feMergeNode in="SourceGraphic"/></feMerge>
    </filter>
  <radialGradient id="bg" cx="50%" cy="30%"><stop offset="0%" stop-color="#1a1040"/><stop offset="100%" stop-color="#050410"/></radialGradient>
  <radialGradient id="orb" cx="50%" cy="40%"><stop offset="0%" stop-color="white" stop-opacity="0.9"/><stop offset="60%" stop-color="#42a5f5"/><stop offset="100%" stop-color="#1565c0"/></radialGradient>
</defs>
<circle cx="32" cy="32" r="30" fill="url(#bg)"/>
<g filter="url(#glow)">
  <path d="M20,58 Q16,44 18,36 Q22,24 32,20 Q42,24 46,36 Q48,44 44,58 Z" fill="#1a1040"/>
  <path d="M14,22 Q18,14 32,16 Q46,14 50,22 Q40,18 36,22 Q34,18 32,20 Q30,18 28,22 Q24,18 14,22 Z" fill="#1a1040"/>
  <ellipse cx="32" cy="28" rx="12" ry="13" fill="#2a1060"/>
  <ellipse cx="28" cy="26" rx="3.5" ry="4" fill="#42a5f5" opacity="0.9"/>
  <ellipse cx="36" cy="26" rx="3.5" ry="4" fill="#42a5f5" opacity="0.9"/>
  <ellipse cx="28" cy="26" rx="1.5" ry="2.5" fill="#050410"/>
  <ellipse cx="36" cy="26" rx="1.5" ry="2.5" fill="#050410"/>
  <path d="M28,33 Q32,36 36,33" stroke="#42a5f5" stroke-width="1.2" fill="none"/>
  <circle cx="48" cy="40" r="9" fill="url(#orb)"/>
  <circle cx="48" cy="40" r="5" fill="#42a5f5" opacity="0.5"/>
  <circle cx="45" cy="37" r="3" fill="white" opacity="0.4"/>
  <line x1="40" y1="34" x2="44" y2="38" stroke="#90caf9" stroke-width="1.5"/>
</g>
</svg>