<svg xmlns="http://www.w3.org/2000/svg" viewBox="0 0 64 64" shape-rendering="crispEdges">
  <rect x="0" y="0" width="64" height="64" fill="#0a0020"/>
  <rect x="26" y="0" width="12" height="4" fill="#1a0040"/>
  <rect x="24" y="4" width="16" height="4" fill="#1a0040"/>
  <rect x="22" y="8" width="20" height="4" fill="#1a0040"/>
  <rect x="10" y="12" width="44" height="4" fill="#1a0040"/>
  <rect x="16" y="16" width="32" height="18" fill="#1a0040"/>
  <rect x="12" y="18" width="4" height="14" fill="#1a0040"/>
  <rect x="48" y="18" width="4" height="14" fill="#1a0040"/>
  <rect x="18" y="18" width="12" height="10" fill="#0a0020"/>
  <rect x="34" y="18" width="12" height="10" fill="#0a0020"/>
  <rect x="20" y="19" width="8" height="7" fill="#8800ff" opacity="0.7"/>
  <rect x="36" y="19" width="8" height="7" fill="#8800ff" opacity="0.7"/>
  <rect x="22" y="20" width="4" height="4" fill="#cc88ff"/>
  <rect x="38" y="20" width="4" height="4" fill="#cc88ff"/>
  <rect x="26" y="6" width="4" height="4" fill="#8800ff" opacity="0.5"/>
  <rect x="34" y="4" width="4" height="6" fill="#8800ff" opacity="0.5"/>
  <rect x="10" y="34" width="44" height="26" fill="#1a0040"/>
  <rect x="6" y="40" width="52" height="16" fill="#1a0040"/>
  <rect x="12" y="34" width="40" height="4" fill="#8800ff" opacity="0.4"/>
  <rect x="4" y="38" width="10" height="16" fill="#1a0040"/>
  <rect x="50" y="38" width="10" height="16" fill="#1a0040"/>
  <rect x="2" y="42" width="8" height="6" fill="#8800ff" opacity="0.5"/>
  <rect x="54" y="42" width="8" height="6" fill="#8800ff" opacity="0.5"/>
  <rect x="14" y="60" width="14" height="4" fill="#1a0040"/>
  <rect x="36" y="60" width="14" height="4" fill="#1a0040"/>
</svg>