<svg xmlns="http://www.w3.org/2000/svg" viewBox="0 0 64 64" width="64" height="64">
  <defs>
    <filter id="shadow" x="-20%" y="-20%" width="140%" height="140%">
      <feDropShadow dx="0" dy="1.5" stdDeviation="1.5" flood-opacity="0.35"/>
    </filter>
  </defs>
  <defs><filter id="glow" x="-40%" y="-40%" width="180%" height="180%">
      <feGaussianBlur stdDeviation="2.5" result="blur"/>
      <feFlood flood-color="#ab47bc" flood-opacity="0.5" result="color"/>
      <feComposite in="color" in2="blur" operator="in" result="glow"/>
      <feMerge><feMergeNode in="glow"/><feMergeNode in="SourceGraphic"/></feMerge>
    </filter>
  <radialGradient id="bg" cx="50%" cy="30%"><stop offset="0%" stop-color="#3d1a00"/><stop offset="100%" stop-color="#0d0500"/></radialGradient>
  <radialGradient id="fire" cx="50%" cy="30%"><stop offset="0%" stop-color="white"/><stop offset="30%" stop-color="#ffd54f"/><stop offset="70%" stop-color="#f44336"/><stop offset="100%" stop-color="#4e342e"/></radialGradient>
</defs>
<circle cx="32" cy="32" r="30" fill="url(#bg)"/>
<g filter="url(#glow)">
  <path d="M32,14 Q20,6 6,12 Q14,20 22,24 Q28,26 32,28 Q36,26 42,24 Q50,20 58,12 Q44,6 32,14" fill="url(#fire)"/>
  <path d="M32,28 Q28,36 26,46 Q28,54 32,58 Q36,54 38,46 Q36,36 32,28" fill="#f44336" opacity="0.8"/>
  <ellipse cx="32" cy="30" rx="11" ry="12" fill="url(#fire)"/>
  <ellipse cx="32" cy="28" rx="8" ry="9" fill="#ffd54f" opacity="0.6"/>
  <circle cx="28" cy="26" r="3" fill="#0d47a1"/><circle cx="36" cy="26" r="3" fill="#0d47a1"/>
  <circle cx="28.5" cy="25.5" r="1.2" fill="white"/><circle cx="36.5" cy="25.5" r="1.2" fill="white"/>
  <path d="M28,33 Q32,37 36,33" stroke="#e65100" stroke-width="2" fill="none"/>
  <path d="M6,12 Q0,4 2,0 Q6,8 10,10" fill="#ffd54f" opacity="0.8"/>
  <path d="M58,12 Q64,4 62,0 Q58,8 54,10" fill="#ffd54f" opacity="0.8"/>
</g>
</svg>