<svg xmlns="http://www.w3.org/2000/svg" viewBox="0 0 64 64" shape-rendering="crispEdges">
  <rect x="0" y="0" width="64" height="64" fill="#8b2000"/>
  <rect x="2" y="18" width="22" height="4" fill="#cc3300" opacity="0.8"/>
  <rect x="2" y="12" width="14" height="8" fill="#cc3300" opacity="0.7"/>
  <rect x="2" y="8" width="8" height="6" fill="#ffaa00" opacity="0.6"/>
  <rect x="40" y="18" width="22" height="4" fill="#cc3300" opacity="0.8"/>
  <rect x="48" y="12" width="14" height="8" fill="#cc3300" opacity="0.7"/>
  <rect x="54" y="8" width="8" height="6" fill="#ffaa00" opacity="0.6"/>
  <rect x="18" y="14" width="28" height="30" fill="#cc3300"/>
  <rect x="14" y="20" width="36" height="22" fill="#cc3300"/>
  <rect x="20" y="8" width="24" height="10" fill="#cc3300"/>
  <rect x="24" y="4" width="16" height="6" fill="#ffaa00" opacity="0.8"/>
  <rect x="20" y="16" width="10" height="8" fill="#ffaa00" opacity="0.9"/>
  <rect x="34" y="16" width="10" height="8" fill="#ffaa00" opacity="0.9"/>
  <rect x="22" y="17" width="6" height="5" fill="#ffee88"/>
  <rect x="36" y="17" width="6" height="5" fill="#ffee88"/>
  <rect x="24" y="18" width="3" height="3" fill="#000"/>
  <rect x="38" y="18" width="3" height="3" fill="#000"/>
  <rect x="26" y="6" width="4" height="4" fill="#ffaa00"/>
  <rect x="34" y="4" width="4" height="6" fill="#ffaa00"/>
  <rect x="16" y="42" width="8" height="18" fill="#ffaa00" opacity="0.7"/>
  <rect x="26" y="44" width="8" height="16" fill="#cc3300" opacity="0.8"/>
  <rect x="30" y="44" width="8" height="16" fill="#cc3300" opacity="0.8"/>
  <rect x="40" y="42" width="8" height="18" fill="#ffaa00" opacity="0.7"/>
</svg>