<svg xmlns="http://www.w3.org/2000/svg" viewBox="0 0 64 64" shape-rendering="crispEdges">
  <rect x="0" y="0" width="64" height="64" fill="#0a0a14"/>
  <rect x="14" y="6" width="36" height="8" fill="#1a1a28"/>
  <rect x="10" y="10" width="44" height="4" fill="#1a1a28"/>
  <rect x="16" y="14" width="32" height="18" fill="#1a1a28"/>
  <rect x="12" y="16" width="4" height="14" fill="#1a1a28"/>
  <rect x="48" y="16" width="4" height="14" fill="#1a1a28"/>
  <rect x="18" y="16" width="12" height="10" fill="#111"/>
  <rect x="34" y="16" width="12" height="10" fill="#111"/>
  <rect x="20" y="17" width="8" height="7" fill="#444466" opacity="0.6"/>
  <rect x="36" y="17" width="8" height="7" fill="#444466" opacity="0.6"/>
  <rect x="22" y="18" width="4" height="4" fill="#888899"/>
  <rect x="38" y="18" width="4" height="4" fill="#888899"/>
  <rect x="28" y="24" width="8" height="4" fill="#1a1a28"/>
  <rect x="12" y="32" width="40" height="24" fill="#1a1a28"/>
  <rect x="8" y="36" width="48" height="16" fill="#1a1a28"/>
  <rect x="14" y="32" width="36" height="4" fill="#444466" opacity="0.4"/>
  <rect x="50" y="10" width="6" height="44" fill="#444466" opacity="0.6"/>
  <rect x="48" y="8" width="10" height="4" fill="#1a1a28"/>
  <rect x="50" y="8" width="6" height="4" fill="#444466"/>
  <rect x="8" y="34" width="10" height="18" fill="#1a1a28"/>
  <rect x="46" y="34" width="10" height="18" fill="#1a1a28"/>
  <rect x="14" y="56" width="14" height="8" fill="#1a1a28"/>
  <rect x="36" y="56" width="14" height="8" fill="#1a1a28"/>
</svg>