<svg xmlns="http://www.w3.org/2000/svg" viewBox="0 0 64 64" width="64" height="64">
  <defs>
    <filter id="shadow" x="-20%" y="-20%" width="140%" height="140%">
      <feDropShadow dx="0" dy="1.5" stdDeviation="1.5" flood-opacity="0.35"/>
    </filter>
  </defs>
  <defs><filter id="glow" x="-40%" y="-40%" width="180%" height="180%">
      <feGaussianBlur stdDeviation="2.5" result="blur"/>
      <feFlood flood-color="#42a5f5" flood-opacity="0.5" result="color"/>
      <feComposite in="color" in2="blur" operator="in" result="glow"/>
      <feMerge><feMergeNode in="glow"/><feMergeNode in="SourceGraphic"/></feMerge>
    </filter>
  <radialGradient id="bg" cx="50%" cy="50%"><stop offset="0%" stop-color="#1a0030"/><stop offset="100%" stop-color="#050008"/></radialGradient>
</defs>
<circle cx="32" cy="32" r="30" fill="url(#bg)"/>
<g filter="url(#glow)">
  <path d="M20,56 Q16,44 18,34 Q22,22 32,18 Q42,22 46,34 Q48,44 44,56 Z" fill="#212121"/>
  <ellipse cx="32" cy="26" rx="11" ry="12" fill="#2d1b4e"/>
  <path d="M18,18 Q20,10 32,12 Q44,10 46,18 Q38,14 34,18 Q32,14 30,18 Q26,14 18,18 Z" fill="#1a0030"/>
  <ellipse cx="28" cy="25" rx="3.5" ry="4" fill="#42a5f5" opacity="0.9"/>
  <ellipse cx="36" cy="25" rx="3.5" ry="4" fill="#42a5f5" opacity="0.9"/>
  <ellipse cx="28" cy="25" rx="1.5" ry="2.5" fill="#0d0020"/>
  <ellipse cx="36" cy="25" rx="1.5" ry="2.5" fill="#0d0020"/>
  <path d="M28,31 Q32,34 36,31" stroke="#42a5f5" stroke-width="1.2" fill="none"/>
  <line x1="42" y1="30" x2="56" y2="24" stroke="#90caf9" stroke-width="2" stroke-linecap="round"/>
  <line x1="44" y1="32" x2="58" y2="26" stroke="#42a5f5" stroke-width="1.2" stroke-linecap="round"/>
  <polygon points="56,24 52,22 54,28" fill="#90caf9"/>
</g>
</svg>