<svg xmlns="http://www.w3.org/2000/svg" viewBox="0 0 64 64" width="64" height="64">
  <defs>
    <filter id="shadow" x="-20%" y="-20%" width="140%" height="140%">
      <feDropShadow dx="0" dy="1.5" stdDeviation="1.5" flood-opacity="0.35"/>
    </filter>
  </defs>
  <defs><filter id="glow" x="-40%" y="-40%" width="180%" height="180%">
      <feGaussianBlur stdDeviation="2.5" result="blur"/>
      <feFlood flood-color="#42a5f5" flood-opacity="0.5" result="color"/>
      <feComposite in="color" in2="blur" operator="in" result="glow"/>
      <feMerge><feMergeNode in="glow"/><feMergeNode in="SourceGraphic"/></feMerge>
    </filter>
  <radialGradient id="bg" cx="50%" cy="50%"><stop offset="0%" stop-color="#1b2d14"/><stop offset="100%" stop-color="#060d04"/></radialGradient>
</defs>
<circle cx="32" cy="32" r="30" fill="url(#bg)"/>
<g filter="url(#glow)">
  <path d="M18,56 Q16,42 20,34 Q24,24 32,20 Q40,24 44,34 Q48,42 46,56 Z" fill="#2e4620"/>
  <ellipse cx="32" cy="26" rx="11" ry="12" fill="#4e6b38"/>
  <path d="M18,20 Q22,12 32,14 Q42,12 46,20 Q36,16 32,20 Q28,16 18,20 Z" fill="#2e4620"/>
  <path d="M32,14 Q30,8 28,10 Q30,12 32,14 Q34,12 36,10 Q34,8 32,14 Z" fill="#81c784" opacity="0.8"/>
  <ellipse cx="28" cy="25" rx="3.5" ry="4" fill="#42a5f5" opacity="0.9"/>
  <ellipse cx="36" cy="25" rx="3.5" ry="4" fill="#42a5f5" opacity="0.9"/>
  <ellipse cx="28" cy="25" rx="1.5" ry="2.5" fill="#1b2d14"/>
  <ellipse cx="36" cy="25" rx="1.5" ry="2.5" fill="#1b2d14"/>
  <path d="M28,31 Q32,34 36,31" stroke="#81c784" stroke-width="1.2" fill="none"/>
  <path d="M14,24 C8,28 8,46 14,50" stroke="#42a5f5" stroke-width="3" fill="none" stroke-linecap="round"/>
  <line x1="14" y1="24" x2="14" y2="50" stroke="#90caf9" stroke-width="0.8" opacity="0.6"/>
  <line x1="26" y1="28" x2="14" y2="37" stroke="#90caf9" stroke-width="0.8" stroke-dasharray="2,2"/>
  <polygon points="34,37 28,34 28,40" fill="#90caf9" opacity="0.7"/>
</g>
</svg>