<svg xmlns="http://www.w3.org/2000/svg" viewBox="0 0 64 64" shape-rendering="crispEdges">
  <rect x="0" y="0" width="64" height="64" fill="#000011"/>
  <rect x="0" y="0" width="64" height="64" fill="#000022" opacity="0.8"/>
  <rect x="10" y="10" width="44" height="44" fill="#000022"/>
  <rect x="6" y="16" width="52" height="32" fill="#000022"/>
  <rect x="12" y="6" width="40" height="8" fill="#000022"/>
  <rect x="12" y="50" width="40" height="8" fill="#000022"/>
  <rect x="14" y="18" width="10" height="10" fill="#000011"/>
  <rect x="40" y="18" width="10" height="10" fill="#000011"/>
  <rect x="16" y="19" width="6" height="7" fill="#0044ff" opacity="0.6"/>
  <rect x="42" y="19" width="6" height="7" fill="#0044ff" opacity="0.6"/>
  <rect x="18" y="20" width="3" height="4" fill="#0088ff"/>
  <rect x="44" y="20" width="3" height="4" fill="#0088ff"/>
  <rect x="20" y="32" width="24" height="8" fill="#000000"/>
  <rect x="22" y="30" width="4" height="4" fill="#0044ff" opacity="0.4"/>
  <rect x="38" y="30" width="4" height="4" fill="#0044ff" opacity="0.4"/>
  <rect x="22" y="32" width="3" height="3" fill="#4444ff"/>
  <rect x="28" y="32" width="3" height="3" fill="#4444ff"/>
  <rect x="34" y="32" width="3" height="3" fill="#4444ff"/>
  <rect x="40" y="32" width="3" height="3" fill="#4444ff"/>
  <rect x="2" y="20" width="8" height="6" fill="#0044ff" opacity="0.3"/>
  <rect x="54" y="20" width="8" height="6" fill="#0044ff" opacity="0.3"/>
  <rect x="4" y="40" width="6" height="6" fill="#0044ff" opacity="0.2"/>
  <rect x="54" y="40" width="6" height="6" fill="#0044ff" opacity="0.2"/>
</svg>