<svg xmlns="http://www.w3.org/2000/svg" viewBox="0 0 64 64" shape-rendering="crispEdges">
  <rect x="0" y="0" width="64" height="64" fill="#1a0028"/>
  <rect x="44" y="20" width="12" height="5" fill="#2d0050"/>
  <rect x="48" y="14" width="10" height="8" fill="#2d0050"/>
  <rect x="52" y="10" width="8" height="6" fill="#8800ff" opacity="0.4"/>
  <rect x="12" y="26" width="36" height="20" fill="#2d0050"/>
  <rect x="8" y="30" width="42" height="14" fill="#2d0050"/>
  <rect x="16" y="34" width="24" height="10" fill="#8800ff" opacity="0.2"/>
  <rect x="4" y="18" width="26" height="22" fill="#2d0050"/>
  <rect x="2" y="22" width="6" height="14" fill="#2d0050"/>
  <rect x="2" y="24" width="14" height="12" fill="#1a0028"/>
  <rect x="2" y="24" width="8" height="4" fill="#111"/>
  <rect x="4" y="30" width="4" height="8" fill="#ddeeff"/>
  <rect x="10" y="30" width="4" height="7" fill="#ddeeff"/>
  <rect x="10" y="20" width="10" height="8" fill="#8800ff"/>
  <rect x="12" y="21" width="6" height="5" fill="#cc88ff"/>
  <rect x="13" y="22" width="3" height="3" fill="#000"/>
  <rect x="13" y="22" width="1" height="1" fill="#fff"/>
  <rect x="16" y="10" width="8" height="12" fill="#2d0050"/>
  <rect x="18" y="12" width="4" height="8" fill="#1a0028" opacity="0.5"/>
  <rect x="12" y="44" width="9" height="16" fill="#1a0028"/>
  <rect x="23" y="44" width="9" height="16" fill="#1a0028"/>
  <rect x="34" y="44" width="9" height="16" fill="#1a0028"/>
  <rect x="44" y="42" width="9" height="14" fill="#1a0028"/>
</svg>