<svg xmlns="http://www.w3.org/2000/svg" viewBox="0 0 64 64" width="64" height="64">
  <defs>
    <filter id="shadow" x="-20%" y="-20%" width="140%" height="140%">
      <feDropShadow dx="0" dy="1.5" stdDeviation="1.5" flood-opacity="0.35"/>
    </filter>
  </defs>
  <defs><filter id="glow" x="-40%" y="-40%" width="180%" height="180%">
      <feGaussianBlur stdDeviation="2.5" result="blur"/>
      <feFlood flood-color="#42a5f5" flood-opacity="0.5" result="color"/>
      <feComposite in="color" in2="blur" operator="in" result="glow"/>
      <feMerge><feMergeNode in="glow"/><feMergeNode in="SourceGraphic"/></feMerge>
    </filter>
  <radialGradient id="bg" cx="50%" cy="50%"><stop offset="0%" stop-color="#2d3748"/><stop offset="100%" stop-color="#0d1117"/></radialGradient>
</defs>
<circle cx="32" cy="32" r="30" fill="url(#bg)"/>
<g filter="url(#glow)">
  <ellipse cx="32" cy="44" rx="18" ry="14" fill="#546e7a"/>
  <ellipse cx="32" cy="36" rx="14" ry="14" fill="#78909c"/>
  <ellipse cx="24" cy="26" rx="7" ry="9" fill="#78909c"/>
  <ellipse cx="40" cy="26" rx="7" ry="9" fill="#78909c"/>
  <ellipse cx="23" cy="21" rx="4.5" ry="6" fill="#546e7a"/>
  <ellipse cx="41" cy="21" rx="4.5" ry="6" fill="#546e7a"/>
  <ellipse cx="28" cy="33" rx="7" ry="5" fill="#b0bec5"/>
  <circle cx="26" cy="30" r="3.5" fill="#42a5f5"/><circle cx="34" cy="30" r="3.5" fill="#42a5f5"/>
  <circle cx="26" cy="30" r="1.8" fill="#000"/><circle cx="34" cy="30" r="1.8" fill="#000"/>
  <ellipse cx="28" cy="37" rx="2" ry="1.2" fill="#546e7a"/>
  <path d="M24,38 Q28,40 32,38" stroke="#546e7a" stroke-width="1.5" fill="none"/>
  <path d="M20,36 L16,38 M20,37 L16,39" stroke="#90a4ae" stroke-width="0.8"/>
  <path d="M44,36 L48,38 M44,37 L48,39" stroke="#90a4ae" stroke-width="0.8"/>
</g>
</svg>