<svg xmlns="http://www.w3.org/2000/svg" viewBox="0 0 32 32" shape-rendering="crispEdges">
  <rect x="0" y="0" width="32" height="32" fill="#050000"/>
  <rect x="14" y="4" width="4" height="4" fill="#440022"/>
  <rect x="12" y="6" width="4" height="2" fill="#330011"/>
  <rect x="16" y="6" width="4" height="2" fill="#330011"/>
  <rect x="10" y="8" width="4" height="2" fill="#440022"/>
  <rect x="18" y="8" width="4" height="2" fill="#440022"/>
  <rect x="10" y="10" width="4" height="2" fill="#220011"/>
  <rect x="18" y="10" width="4" height="2" fill="#220011"/>
  <rect x="12" y="12" width="4" height="2" fill="#330022"/>
  <rect x="16" y="12" width="4" height="2" fill="#330022"/>
  <rect x="14" y="14" width="4" height="2" fill="#440022"/>
  <rect x="9" y="16" width="14" height="14" fill="#220011"/>
  <rect x="10" y="17" width="12" height="12" fill="#330022"/>
  <rect x="11" y="18" width="10" height="10" fill="#440033"/>
  <rect x="12" y="20" width="8" height="6" fill="#220022"/>
  <rect x="13" y="21" width="6" height="4" fill="#330033"/>
  <rect x="12" y="20" width="3" height="3" fill="#ffffff" opacity="0.2"/>
  <rect x="17" y="20" width="3" height="3" fill="#ffffff" opacity="0.2"/>
  <rect x="14" y="22" width="4" height="2" fill="#880000" opacity="0.7"/>
  <rect x="15" y="4" width="2" height="14" fill="#330011" opacity="0.4"/>
</svg>