<svg xmlns="http://www.w3.org/2000/svg" viewBox="0 0 32 32" shape-rendering="crispEdges">
  <rect x="0" y="0" width="32" height="32" fill="#1a1a2e"/>
  <rect x="14" y="4" width="4" height="4" fill="#ddd5c8"/>
  <rect x="10" y="6" width="4" height="2" fill="#ccc5b8"/>
  <rect x="18" y="6" width="4" height="2" fill="#ccc5b8"/>
  <rect x="8" y="8" width="4" height="2" fill="#ddd5c8"/>
  <rect x="20" y="8" width="4" height="2" fill="#ddd5c8"/>
  <rect x="6" y="10" width="4" height="2" fill="#ccc5b8"/>
  <rect x="22" y="10" width="4" height="2" fill="#ccc5b8"/>
  <rect x="6" y="12" width="4" height="2" fill="#ddd5c8"/>
  <rect x="22" y="12" width="4" height="2" fill="#ddd5c8"/>
  <rect x="8" y="14" width="4" height="2" fill="#ccc5b8"/>
  <rect x="20" y="14" width="4" height="2" fill="#ccc5b8"/>
  <rect x="10" y="16" width="4" height="2" fill="#ddd5c8"/>
  <rect x="18" y="16" width="4" height="2" fill="#ddd5c8"/>
  <rect x="12" y="18" width="8" height="4" fill="#bbaa99"/>
  <rect x="13" y="18" width="6" height="4" fill="#888070"/>
  <rect x="14" y="20" width="4" height="8" fill="#ccc5b8"/>
  <rect x="15" y="22" width="2" height="6" fill="#ddd5c8"/>
</svg>