<svg xmlns="http://www.w3.org/2000/svg" viewBox="0 0 100 100">
  <!-- String cord -->
  <path d="M22,30 Q50,18 78,30" stroke="#5a3a1a" stroke-width="1.5" fill="none"/>
  <path d="M22,30 Q16,44 18,60" stroke="#5a3a1a" stroke-width="1.5" fill="none"/>
  <path d="M78,30 Q84,44 82,60" stroke="#5a3a1a" stroke-width="1.5" fill="none"/>
  <!-- Bone beads on string -->
  <ellipse cx="30" cy="28" rx="4" ry="6" fill="#d4c8a8" transform="rotate(-20,30,28)"/>
  <ellipse cx="38" cy="23" rx="4" ry="6" fill="#c8bc9a" transform="rotate(-10,38,23)"/>
  <ellipse cx="46" cy="20" rx="4" ry="6" fill="#d4c8a8"/>
  <ellipse cx="54" cy="20" rx="4" ry="6" fill="#c8bc9a"/>
  <ellipse cx="62" cy="23" rx="4" ry="6" fill="#d4c8a8" transform="rotate(10,62,23)"/>
  <ellipse cx="70" cy="28" rx="4" ry="6" fill="#c8bc9a" transform="rotate(20,70,28)"/>
  <!-- Tooth pendant center -->
  <path d="M44,60 Q50,80 56,60 Q54,54 50,52 Q46,54 44,60Z" fill="#d4c8a8"/>
  <line x1="50" y1="54" x2="50" y2="72" stroke="#b0a480" stroke-width="1" opacity="0.5"/>
  <!-- Small tooth sides -->
  <path d="M32,52 Q36,66 40,52 Q38,48 36,46 Q34,48 32,52Z" fill="#c8bc9a"/>
  <path d="M60,52 Q64,66 68,52 Q66,48 64,46 Q62,48 60,52Z" fill="#c8bc9a"/>
  <!-- Side beads on drop cords -->
  <ellipse cx="20" cy="50" rx="4" ry="5" fill="#d4c8a8"/>
  <ellipse cx="80" cy="50" rx="4" ry="5" fill="#d4c8a8"/>
</svg>
