<svg xmlns="http://www.w3.org/2000/svg" viewBox="0 0 32 32" shape-rendering="crispEdges">
  <rect x="0" y="0" width="32" height="32" fill="#080800"/>
  <rect x="5" y="2" width="10" height="22" fill="#555500"/>
  <rect x="17" y="2" width="10" height="22" fill="#555500"/>
  <rect x="5" y="22" width="13" height="6" fill="#444400"/>
  <rect x="17" y="22" width="13" height="6" fill="#444400"/>
  <rect x="5" y="2" width="10" height="4" fill="#888800"/>
  <rect x="17" y="2" width="10" height="4" fill="#888800"/>
  <rect x="6" y="6" width="8" height="16" fill="#666600"/>
  <rect x="18" y="6" width="8" height="16" fill="#666600"/>
  <rect x="6" y="4" width="4" height="8" fill="#ffdd00" opacity="0.5"/>
  <rect x="18" y="6" width="4" height="6" fill="#ffcc00" opacity="0.4"/>
  <rect x="5" y="26" width="13" height="2" fill="#333300"/>
  <rect x="17" y="26" width="13" height="2" fill="#333300"/>
  <rect x="8" y="2" width="2" height="4" fill="#ffff88" opacity="0.6"/>
  <rect x="19" y="2" width="2" height="4" fill="#ffff88" opacity="0.6"/>
</svg>