<svg xmlns="http://www.w3.org/2000/svg" viewBox="0 0 100 100">
  <defs>
    <linearGradient id="celgreave" x1="0" y1="0" x2="1" y2="0">
      <stop offset="0%" stop-color="#0a0a2e"/>
      <stop offset="50%" stop-color="#1a1a4e"/>
      <stop offset="100%" stop-color="#050520"/>
    </linearGradient>
  </defs>
  <!-- Starfield glow behind -->
  <path d="M16,8 Q28,4 38,8 L42,80 Q28,86 14,80Z" fill="#4488ff" opacity="0.08"/>
  <path d="M62,8 Q74,4 84,8 L86,80 Q72,86 60,80Z" fill="#4488ff" opacity="0.08"/>
  <!-- Left leg plate -->
  <path d="M16,8 Q28,4 38,8 L42,80 Q28,86 14,80Z" fill="url(#celgreave)"/>
  <!-- Constellation dots left leg -->
  <circle cx="22" cy="20" r="1.5" fill="#ffffff" opacity="0.9"/>
  <circle cx="30" cy="16" r="1.2" fill="#aaddff" opacity="0.8"/>
  <circle cx="36" cy="24" r="1.5" fill="#ffffff" opacity="0.9"/>
  <line x1="22" y1="20" x2="30" y2="16" stroke="#aaddff" stroke-width="0.6" opacity="0.4"/>
  <line x1="30" y1="16" x2="36" y2="24" stroke="#aaddff" stroke-width="0.6" opacity="0.4"/>
  <circle cx="20" cy="36" r="1.2" fill="#ffffff" opacity="0.7"/>
  <circle cx="28" cy="40" r="1.5" fill="#ffee88" opacity="0.8"/>
  <circle cx="34" cy="34" r="1" fill="#ffffff" opacity="0.7"/>
  <line x1="20" y1="36" x2="28" y2="40" stroke="#aaddff" stroke-width="0.5" opacity="0.4"/>
  <line x1="28" y1="40" x2="34" y2="34" stroke="#aaddff" stroke-width="0.5" opacity="0.4"/>
  <circle cx="22" cy="58" r="1.5" fill="#ffffff" opacity="0.7"/>
  <circle cx="32" cy="62" r="1.2" fill="#aaddff" opacity="0.7"/>
  <circle cx="24" cy="70" r="1" fill="#ffffff" opacity="0.6"/>
  <line x1="22" y1="58" x2="32" y2="62" stroke="#aaddff" stroke-width="0.5" opacity="0.3"/>
  <!-- Right leg plate -->
  <path d="M62,8 Q74,4 84,8 L86,80 Q72,86 60,80Z" fill="url(#celgreave)"/>
  <!-- Constellation dots right leg -->
  <circle cx="66" cy="22" r="1.5" fill="#ffffff" opacity="0.9"/>
  <circle cx="74" cy="18" r="1.2" fill="#aaddff" opacity="0.8"/>
  <circle cx="80" cy="26" r="1.5" fill="#ffffff" opacity="0.9"/>
  <line x1="66" y1="22" x2="74" y2="18" stroke="#aaddff" stroke-width="0.6" opacity="0.4"/>
  <line x1="74" y1="18" x2="80" y2="26" stroke="#aaddff" stroke-width="0.6" opacity="0.4"/>
  <circle cx="64" cy="40" r="1.2" fill="#ffffff" opacity="0.7"/>
  <circle cx="72" cy="44" r="1.5" fill="#ffee88" opacity="0.8"/>
  <circle cx="80" cy="38" r="1" fill="#ffffff" opacity="0.7"/>
  <line x1="64" y1="40" x2="72" y2="44" stroke="#aaddff" stroke-width="0.5" opacity="0.4"/>
  <circle cx="66" cy="60" r="1.5" fill="#ffffff" opacity="0.7"/>
  <circle cx="76" cy="66" r="1.2" fill="#aaddff" opacity="0.7"/>
  <line x1="66" y1="60" x2="76" y2="66" stroke="#aaddff" stroke-width="0.5" opacity="0.3"/>
  <!-- Rim glow -->
  <path d="M16,8 Q28,4 38,8 L42,80 Q28,86 14,80Z" fill="none" stroke="#4488ff" stroke-width="1.5" opacity="0.5"/>
  <path d="M62,8 Q74,4 84,8 L86,80 Q72,86 60,80Z" fill="none" stroke="#4488ff" stroke-width="1.5" opacity="0.5"/>
  <!-- Knee star clusters -->
  <circle cx="28" cy="48" r="7" fill="#0a1a3e"/>
  <circle cx="72" cy="48" r="7" fill="#0a1a3e"/>
  <circle cx="28" cy="48" r="4" fill="none" stroke="#4488ff" stroke-width="1" opacity="0.6"/>
  <circle cx="72" cy="48" r="4" fill="none" stroke="#4488ff" stroke-width="1" opacity="0.6"/>
  <circle cx="28" cy="48" r="2" fill="#88bbff" opacity="0.6"/>
  <circle cx="72" cy="48" r="2" fill="#88bbff" opacity="0.6"/>
  <!-- Waist -->
  <rect x="14" y="4" width="72" height="6" rx="2" fill="#0a0a2e"/>
  <rect x="14" y="4" width="72" height="2" rx="1" fill="#4488ff" opacity="0.5"/>
</svg>
