<svg xmlns="http://www.w3.org/2000/svg" viewBox="0 0 100 100">
  <!-- Mail shirt body -->
  <path d="M16,30 Q16,18 50,12 Q84,18 84,30 L80,90 Q50,96 20,90Z" fill="#6a7a84"/>
  <!-- Chain ring rows - top section -->
  <path d="M22,32 Q36,30 50,30 Q64,30 78,32" stroke="#4a5a64" stroke-width="1" fill="none" opacity="0.7"/>
  <path d="M20,38 Q36,36 50,36 Q64,36 80,38" stroke="#4a5a64" stroke-width="1" fill="none" opacity="0.7"/>
  <path d="M20,44 Q36,42 50,42 Q64,42 80,44" stroke="#4a5a64" stroke-width="1" fill="none" opacity="0.6"/>
  <path d="M20,50 Q36,48 50,48 Q64,48 80,50" stroke="#4a5a64" stroke-width="1" fill="none" opacity="0.6"/>
  <path d="M20,56 Q36,54 50,54 Q64,54 80,56" stroke="#4a5a64" stroke-width="1" fill="none" opacity="0.5"/>
  <path d="M20,62 Q36,60 50,60 Q64,60 80,62" stroke="#4a5a64" stroke-width="1" fill="none" opacity="0.5"/>
  <path d="M20,68 Q36,66 50,66 Q64,66 80,68" stroke="#4a5a64" stroke-width="1" fill="none" opacity="0.5"/>
  <path d="M22,74 Q36,72 50,72 Q64,72 78,74" stroke="#4a5a64" stroke-width="1" fill="none" opacity="0.4"/>
  <path d="M24,80 Q38,78 50,78 Q62,78 76,80" stroke="#4a5a64" stroke-width="1" fill="none" opacity="0.4"/>
  <!-- Individual ring details at key spots -->
  <circle cx="30" cy="35" r="2" fill="none" stroke="#8a9ba8" stroke-width="0.8" opacity="0.5"/>
  <circle cx="38" cy="35" r="2" fill="none" stroke="#8a9ba8" stroke-width="0.8" opacity="0.5"/>
  <circle cx="50" cy="35" r="2" fill="none" stroke="#8a9ba8" stroke-width="0.8" opacity="0.5"/>
  <circle cx="62" cy="35" r="2" fill="none" stroke="#8a9ba8" stroke-width="0.8" opacity="0.5"/>
  <circle cx="70" cy="35" r="2" fill="none" stroke="#8a9ba8" stroke-width="0.8" opacity="0.5"/>
  <!-- Coif collar at neck -->
  <path d="M34,20 Q50,16 66,20 Q60,28 50,26 Q40,28 34,20Z" fill="#5a6a74"/>
  <!-- Sleeves hint -->
  <path d="M16,30 L8,50 L14,52 L22,36Z" fill="#6a7a84"/>
  <path d="M84,30 L92,50 L86,52 L78,36Z" fill="#6a7a84"/>
  <!-- Hem bottom -->
  <rect x="20" y="88" width="60" height="5" rx="2" fill="#5a6a74"/>
</svg>
