<svg xmlns="http://www.w3.org/2000/svg" viewBox="0 0 100 100">
  <!-- Coif body -->
  <path d="M24,80 Q20,55 30,35 Q40,18 50,16 Q60,18 70,35 Q80,55 76,80Z" fill="#6a7a84"/>
  <!-- Chain mail pattern (simplified ring texture) -->
  <path d="M30,45 Q40,43 50,43 Q60,43 70,45" stroke="#5a6a74" stroke-width="1" fill="none" opacity="0.6"/>
  <path d="M28,52 Q40,50 50,50 Q60,50 72,52" stroke="#5a6a74" stroke-width="1" fill="none" opacity="0.6"/>
  <path d="M26,60 Q38,57 50,57 Q62,57 74,60" stroke="#5a6a74" stroke-width="1" fill="none" opacity="0.6"/>
  <path d="M25,68 Q38,65 50,65 Q62,65 75,68" stroke="#5a6a74" stroke-width="1" fill="none" opacity="0.5"/>
  <!-- Ring detail circles -->
  <circle cx="35" cy="48" r="1.5" fill="none" stroke="#8a9ba8" stroke-width="0.8" opacity="0.5"/>
  <circle cx="42" cy="48" r="1.5" fill="none" stroke="#8a9ba8" stroke-width="0.8" opacity="0.5"/>
  <circle cx="50" cy="48" r="1.5" fill="none" stroke="#8a9ba8" stroke-width="0.8" opacity="0.5"/>
  <circle cx="58" cy="48" r="1.5" fill="none" stroke="#8a9ba8" stroke-width="0.8" opacity="0.5"/>
  <circle cx="65" cy="48" r="1.5" fill="none" stroke="#8a9ba8" stroke-width="0.8" opacity="0.5"/>
  <!-- Face opening - oval -->
  <ellipse cx="50" cy="44" rx="16" ry="18" fill="#2a1a0a" opacity="0.7"/>
  <ellipse cx="50" cy="44" rx="13" ry="15" fill="#1a0e06" opacity="0.8"/>
  <!-- Highlight on top dome area -->
  <ellipse cx="50" cy="24" rx="12" ry="8" fill="#8a9ba8" opacity="0.25"/>
  <!-- Bottom drape -->
  <rect x="22" y="77" width="56" height="6" rx="3" fill="#5a6a74"/>
</svg>
