<svg xmlns="http://www.w3.org/2000/svg" viewBox="0 0 32 32" shape-rendering="crispEdges">
  <rect x="0" y="0" width="32" height="32" fill="#1a1a2e"/>
  <rect x="7" y="6" width="18" height="22" fill="#888888"/>
  <rect x="4" y="10" width="4" height="16" fill="#777777"/>
  <rect x="24" y="10" width="4" height="16" fill="#777777"/>
  <rect x="9" y="8" width="14" height="18" fill="#999999"/>
  <rect x="9" y="8" width="2" height="2" fill="#aaaaaa"/>
  <rect x="13" y="8" width="2" height="2" fill="#aaaaaa"/>
  <rect x="17" y="8" width="2" height="2" fill="#aaaaaa"/>
  <rect x="21" y="8" width="2" height="2" fill="#aaaaaa"/>
  <rect x="11" y="12" width="2" height="2" fill="#aaaaaa"/>
  <rect x="15" y="12" width="2" height="2" fill="#aaaaaa"/>
  <rect x="19" y="12" width="2" height="2" fill="#aaaaaa"/>
  <rect x="9" y="16" width="2" height="2" fill="#aaaaaa"/>
  <rect x="13" y="16" width="2" height="2" fill="#aaaaaa"/>
  <rect x="17" y="16" width="2" height="2" fill="#aaaaaa"/>
  <rect x="21" y="16" width="2" height="2" fill="#aaaaaa"/>
  <rect x="7" y="26" width="18" height="2" fill="#777777"/>
</svg>