<svg xmlns="http://www.w3.org/2000/svg" viewBox="0 0 100 100">
  <defs>
    <linearGradient id="chaosgrad1" x1="0" y1="0" x2="1" y2="1">
      <stop offset="0%" stop-color="#ff0066"/>
      <stop offset="50%" stop-color="#8800ff"/>
      <stop offset="100%" stop-color="#0066ff"/>
    </linearGradient>
    <linearGradient id="chaosgrad2" x1="1" y1="0" x2="0" y2="1">
      <stop offset="0%" stop-color="#ff8800"/>
      <stop offset="50%" stop-color="#00ff88"/>
      <stop offset="100%" stop-color="#ff0088"/>
    </linearGradient>
    <filter id="chaosglow"><feGaussianBlur stdDeviation="2"/></filter>
  </defs>
  <!-- Chaos aura -->
  <ellipse cx="50" cy="55" rx="40" ry="40" fill="#8800ff" opacity="0.08" filter="url(#chaosglow)"/>
  <!-- Mantle body - asymmetric flowing chaos -->
  <path d="M16,24 Q10,20 14,12 Q20,18 18,10 Q26,16 22,8 Q30,18 28,10 Q36,20 30,14 Q38,22 50,18 Q62,22 70,14 Q64,20 72,10 Q76,18 74,8 Q82,16 78,10 Q86,18 82,12 Q86,20 84,24 L80,88 Q50,96 20,88Z" fill="url(#chaosgrad1)"/>
  <!-- Chaos swirl overlays -->
  <path d="M22,40 Q30,32 38,40 Q30,48 22,40Z" fill="url(#chaosgrad2)" opacity="0.5"/>
  <path d="M52,30 Q62,24 68,34 Q60,42 52,30Z" fill="#00ffcc" opacity="0.3"/>
  <path d="M28,60 Q36,52 44,62 Q36,70 28,60Z" fill="#ff8800" opacity="0.4"/>
  <path d="M58,56 Q66,48 74,58 Q66,66 58,56Z" fill="#0088ff" opacity="0.4"/>
  <path d="M36,76 Q44,70 52,78 Q44,84 36,76Z" fill="#ff0066" opacity="0.4"/>
  <!-- Chaotic energy sparks -->
  <circle cx="32" cy="36" r="2" fill="#ffffff" opacity="0.6"/>
  <circle cx="68" cy="44" r="1.5" fill="#ffffff" opacity="0.5"/>
  <circle cx="44" cy="66" r="2" fill="#ffff00" opacity="0.5"/>
  <circle cx="60" cy="72" r="1.5" fill="#00ffff" opacity="0.5"/>
  <circle cx="26" cy="56" r="1.5" fill="#ff88ff" opacity="0.5"/>
  <!-- Chaos at collar/shoulders -->
  <path d="M16,24 Q8,18 6,10 Q12,16 10,8 Q16,16 16,24Z" fill="url(#chaosgrad2)" opacity="0.7"/>
  <path d="M84,24 Q92,18 94,10 Q88,16 90,8 Q84,16 84,24Z" fill="url(#chaosgrad1)" opacity="0.7"/>
</svg>
