<svg xmlns="http://www.w3.org/2000/svg" viewBox="0 0 100 100">
  <!-- Robe body -->
  <path d="M28,22 L22,90 L78,90 L72,22 Q60,18 50,18 Q40,18 28,22Z" fill="#8888aa"/>
  <!-- Collar -->
  <path d="M36,22 Q50,28 64,22 L60,32 Q50,36 40,32Z" fill="#6666aa"/>
  <!-- Center opening -->
  <path d="M50,28 L50,65" stroke="#6666aa" stroke-width="2" fill="none"/>
  <!-- Belt -->
  <rect x="30" y="54" width="40" height="6" rx="2" fill="#5555aa"/>
  <!-- Fabric fold lines -->
  <line x1="35" y1="38" x2="30" y2="88" stroke="#6666aa" stroke-width="1" opacity="0.4"/>
  <line x1="65" y1="38" x2="70" y2="88" stroke="#6666aa" stroke-width="1" opacity="0.4"/>
  <line x1="44" y1="60" x2="38" y2="90" stroke="#6666aa" stroke-width="0.8" opacity="0.3"/>
  <line x1="56" y1="60" x2="62" y2="90" stroke="#6666aa" stroke-width="0.8" opacity="0.3"/>
  <!-- Sleeves -->
  <path d="M28,22 L14,44 L20,46 L32,30Z" fill="#7777aa"/>
  <path d="M72,22 L86,44 L80,46 L68,30Z" fill="#7777aa"/>
</svg>
