<svg xmlns="http://www.w3.org/2000/svg" viewBox="0 0 32 32" shape-rendering="crispEdges">
  <rect x="0" y="0" width="32" height="32" fill="#000810"/>
  <rect x="14" y="4" width="4" height="4" fill="#44aacc"/>
  <rect x="12" y="6" width="4" height="2" fill="#3388aa"/>
  <rect x="16" y="6" width="4" height="2" fill="#3388aa"/>
  <rect x="10" y="8" width="4" height="2" fill="#44aacc"/>
  <rect x="18" y="8" width="4" height="2" fill="#44aacc"/>
  <rect x="10" y="10" width="4" height="2" fill="#55bbdd"/>
  <rect x="18" y="10" width="4" height="2" fill="#55bbdd"/>
  <rect x="12" y="12" width="4" height="2" fill="#44aacc"/>
  <rect x="16" y="12" width="4" height="2" fill="#44aacc"/>
  <rect x="14" y="14" width="4" height="2" fill="#3388aa"/>
  <rect x="9" y="16" width="14" height="14" fill="#44aacc"/>
  <rect x="10" y="17" width="12" height="12" fill="#55bbdd"/>
  <rect x="12" y="19" width="8" height="8" fill="#77ddee"/>
  <rect x="14" y="21" width="4" height="6" fill="#aaeeff"/>
  <rect x="15" y="22" width="2" height="4" fill="#ffffff" opacity="0.7"/>
  <rect x="15" y="4" width="2" height="14" fill="#3388aa" opacity="0.4"/>
</svg>