<svg xmlns="http://www.w3.org/2000/svg" viewBox="0 0 32 32" shape-rendering="crispEdges">
  <rect x="0" y="0" width="32" height="32" fill="#050000"/>
  <rect x="7" y="4" width="18" height="24" fill="#aa2200"/>
  <rect x="4" y="8" width="4" height="18" fill="#881a00"/>
  <rect x="24" y="8" width="4" height="18" fill="#881a00"/>
  <rect x="9" y="6" width="14" height="20" fill="#cc3300"/>
  <rect x="9" y="8" width="4" height="4" fill="#dd4400"/>
  <rect x="13" y="8" width="4" height="4" fill="#cc3300"/>
  <rect x="17" y="8" width="4" height="4" fill="#dd4400"/>
  <rect x="21" y="8" width="4" height="4" fill="#cc3300"/>
  <rect x="11" y="12" width="4" height="4" fill="#ee5500"/>
  <rect x="15" y="12" width="4" height="4" fill="#dd4400"/>
  <rect x="19" y="12" width="4" height="4" fill="#ee5500"/>
  <rect x="9" y="16" width="4" height="4" fill="#cc3300"/>
  <rect x="13" y="16" width="4" height="4" fill="#dd4400"/>
  <rect x="17" y="16" width="4" height="4" fill="#cc3300"/>
  <rect x="7" y="26" width="18" height="2" fill="#881a00"/>
</svg>