<svg xmlns="http://www.w3.org/2000/svg" viewBox="0 0 100 100">
  <defs>
    <linearGradient id="scalecolor" x1="0" y1="0" x2="1" y2="1">
      <stop offset="0%" stop-color="#2a6a30"/>
      <stop offset="50%" stop-color="#8ab840"/>
      <stop offset="100%" stop-color="#4a8a20"/>
    </linearGradient>
  </defs>
  <!-- Vest body -->
  <path d="M24,26 Q24,14 50,10 Q76,14 76,26 L72,88 Q50,94 28,88Z" fill="#2a4a20"/>
  <!-- Dragon scale rows - overlapping teardrop shapes -->
  <!-- Row 1 -->
  <ellipse cx="38" cy="26" rx="8" ry="5" fill="url(#scalecolor)" opacity="0.8"/>
  <ellipse cx="50" cy="24" rx="8" ry="5" fill="url(#scalecolor)" opacity="0.8"/>
  <ellipse cx="62" cy="26" rx="8" ry="5" fill="url(#scalecolor)" opacity="0.8"/>
  <!-- Row 2 -->
  <ellipse cx="32" cy="34" rx="8" ry="5" fill="#3a7a28" opacity="0.8"/>
  <ellipse cx="44" cy="32" rx="8" ry="5" fill="#3a7a28" opacity="0.8"/>
  <ellipse cx="56" cy="32" rx="8" ry="5" fill="#3a7a28" opacity="0.8"/>
  <ellipse cx="68" cy="34" rx="8" ry="5" fill="#3a7a28" opacity="0.8"/>
  <!-- Row 3 -->
  <ellipse cx="30" cy="44" rx="7" ry="5" fill="url(#scalecolor)" opacity="0.7"/>
  <ellipse cx="42" cy="42" rx="7" ry="5" fill="url(#scalecolor)" opacity="0.7"/>
  <ellipse cx="54" cy="42" rx="7" ry="5" fill="url(#scalecolor)" opacity="0.7"/>
  <ellipse cx="66" cy="44" rx="7" ry="5" fill="url(#scalecolor)" opacity="0.7"/>
  <!-- Row 4 -->
  <ellipse cx="32" cy="54" rx="7" ry="5" fill="#3a7a28" opacity="0.7"/>
  <ellipse cx="44" cy="52" rx="7" ry="5" fill="#3a7a28" opacity="0.7"/>
  <ellipse cx="56" cy="52" rx="7" ry="5" fill="#3a7a28" opacity="0.7"/>
  <ellipse cx="68" cy="54" rx="7" ry="5" fill="#3a7a28" opacity="0.7"/>
  <!-- Row 5 -->
  <ellipse cx="34" cy="64" rx="7" ry="5" fill="url(#scalecolor)" opacity="0.6"/>
  <ellipse cx="46" cy="62" rx="7" ry="5" fill="url(#scalecolor)" opacity="0.6"/>
  <ellipse cx="58" cy="62" rx="7" ry="5" fill="url(#scalecolor)" opacity="0.6"/>
  <ellipse cx="66" cy="64" rx="6" ry="4" fill="url(#scalecolor)" opacity="0.6"/>
  <!-- Collar -->
  <path d="M34,18 Q50,12 66,18 Q60,24 50,22 Q40,24 34,18Z" fill="#1a3a10"/>
  <path d="M36,18 Q50,14 64,18" stroke="#6aaa30" stroke-width="1" fill="none" opacity="0.5"/>
</svg>
