<svg xmlns="http://www.w3.org/2000/svg" viewBox="0 0 100 100">
  <defs>
    <linearGradient id="dragonhide" x1="0" y1="0" x2="1" y2="0">
      <stop offset="0%" stop-color="#1a0a00"/>
      <stop offset="40%" stop-color="#4a2a00"/>
      <stop offset="100%" stop-color="#0a0500"/>
    </linearGradient>
    <radialGradient id="dragongleam" cx="35%" cy="30%" r="50%">
      <stop offset="0%" stop-color="#c08000" stop-opacity="0.4"/>
      <stop offset="100%" stop-color="#c08000" stop-opacity="0"/>
    </radialGradient>
    <filter id="dragonfire"><feGaussianBlur stdDeviation="2"/></filter>
  </defs>
  <!-- Fire aura edges -->
  <path d="M14,28 Q8,22 10,12 Q14,20 12,10 Q18,20 16,12 Q22,22 18,14" stroke="#ff6600" stroke-width="2" fill="none" opacity="0.4"/>
  <path d="M86,28 Q92,22 90,12 Q86,20 88,10 Q82,20 84,12 Q78,22 82,14" stroke="#ff6600" stroke-width="2" fill="none" opacity="0.4"/>
  <!-- Main body -->
  <path d="M14,28 Q14,8 50,4 Q86,8 86,28 L82,86 Q50,96 18,86Z" fill="url(#dragonhide)"/>
  <!-- Gleam -->
  <ellipse cx="38" cy="32" rx="24" ry="24" fill="url(#dragongleam)"/>
  <!-- Dragon scale pattern - large overlapping -->
  <path d="M28,24 Q36,18 44,24 Q36,30 28,24Z" fill="#3a1a00" opacity="0.8"/>
  <path d="M44,24 Q52,18 60,24 Q52,30 44,24Z" fill="#3a1a00" opacity="0.8"/>
  <path d="M60,24 Q68,18 76,24 Q68,30 60,24Z" fill="#3a1a00" opacity="0.8"/>
  <path d="M22,36 Q32,30 40,36 Q32,42 22,36Z" fill="#5a2a00" opacity="0.7"/>
  <path d="M40,36 Q50,30 58,36 Q50,42 40,36Z" fill="#5a2a00" opacity="0.7"/>
  <path d="M58,36 Q68,30 76,36 Q68,42 58,36Z" fill="#5a2a00" opacity="0.7"/>
  <path d="M20,50 Q30,44 40,50 Q30,56 20,50Z" fill="#3a1a00" opacity="0.7"/>
  <path d="M40,50 Q50,44 60,50 Q50,56 40,50Z" fill="#3a1a00" opacity="0.7"/>
  <path d="M60,50 Q70,44 80,50 Q70,56 60,50Z" fill="#3a1a00" opacity="0.7"/>
  <path d="M22,64 Q32,58 42,64 Q32,70 22,64Z" fill="#5a2a00" opacity="0.6"/>
  <path d="M42,64 Q52,58 62,64 Q52,70 42,64Z" fill="#5a2a00" opacity="0.6"/>
  <path d="M62,64 Q72,58 80,64 Q72,70 62,64Z" fill="#5a2a00" opacity="0.6"/>
  <!-- Scale edge glints -->
  <path d="M36,18 Q44,14 52,18" stroke="#c08000" stroke-width="0.8" fill="none" opacity="0.5"/>
  <path d="M30,30 Q40,26 50,30" stroke="#c08000" stroke-width="0.8" fill="none" opacity="0.4"/>
  <!-- Dragon eye medallion chest piece -->
  <ellipse cx="50" cy="30" rx="8" ry="6" fill="#1a0a00"/>
  <ellipse cx="50" cy="30" rx="6" ry="4" fill="#ff6600" opacity="0.7"/>
  <ellipse cx="50" cy="30" rx="2" ry="3" fill="#ff2200" opacity="0.9"/>
  <ellipse cx="50" cy="30" rx="1" ry="2" fill="#ffaa00"/>
  <!-- Jaw/teeth pauldrons -->
  <path d="M14,28 Q6,32 4,26 Q8,22 12,26 Q10,30 14,28Z" fill="#2a1000"/>
  <path d="M86,28 Q94,32 96,26 Q92,22 88,26 Q90,30 86,28Z" fill="#2a1000"/>
  <!-- Flame bottom hem -->
  <path d="M18,84 Q28,78 36,84 Q44,78 52,84 Q60,78 68,84 Q76,78 82,84" stroke="#ff6600" stroke-width="1.5" fill="none" opacity="0.5"/>
</svg>
