<svg xmlns="http://www.w3.org/2000/svg" viewBox="0 0 32 32" shape-rendering="crispEdges">
  <rect x="0" y="0" width="32" height="32" fill="#000005"/>
  <rect x="14" y="4" width="4" height="4" fill="#6600cc"/>
  <rect x="12" y="6" width="4" height="2" fill="#4400aa"/>
  <rect x="16" y="6" width="4" height="2" fill="#4400aa"/>
  <rect x="10" y="8" width="4" height="2" fill="#6600cc"/>
  <rect x="18" y="8" width="4" height="2" fill="#6600cc"/>
  <rect x="10" y="10" width="4" height="2" fill="#440088"/>
  <rect x="18" y="10" width="4" height="2" fill="#440088"/>
  <rect x="12" y="12" width="4" height="2" fill="#6600cc"/>
  <rect x="16" y="12" width="4" height="2" fill="#6600cc"/>
  <rect x="14" y="14" width="4" height="2" fill="#4400aa"/>
  <rect x="8" y="16" width="16" height="14" fill="#220044"/>
  <rect x="9" y="17" width="14" height="12" fill="#330066"/>
  <rect x="11" y="19" width="10" height="8" fill="#440088"/>
  <rect x="12" y="20" width="8" height="8" fill="#6600cc"/>
  <rect x="13" y="21" width="6" height="6" fill="#8800ff"/>
  <rect x="14" y="22" width="4" height="4" fill="#000000"/>
  <rect x="15" y="23" width="2" height="2" fill="#ffffff"/>
  <rect x="13" y="22" width="2" height="2" fill="#cc44ff" opacity="0.5"/>
  <rect x="17" y="22" width="2" height="2" fill="#cc44ff" opacity="0.5"/>
  <rect x="15" y="4" width="2" height="14" fill="#4400aa" opacity="0.4"/>
</svg>