<svg xmlns="http://www.w3.org/2000/svg" viewBox="0 0 32 32" shape-rendering="crispEdges">
  <rect x="0" y="0" width="32" height="32" fill="#080800"/>
  <rect x="14" y="4" width="4" height="4" fill="#ffcc00"/>
  <rect x="12" y="6" width="4" height="2" fill="#ddaa00"/>
  <rect x="16" y="6" width="4" height="2" fill="#ddaa00"/>
  <rect x="10" y="8" width="4" height="2" fill="#ffcc00"/>
  <rect x="18" y="8" width="4" height="2" fill="#ffcc00"/>
  <rect x="10" y="10" width="4" height="2" fill="#ffdd00"/>
  <rect x="18" y="10" width="4" height="2" fill="#ffdd00"/>
  <rect x="12" y="12" width="4" height="2" fill="#ffcc00"/>
  <rect x="16" y="12" width="4" height="2" fill="#ffcc00"/>
  <rect x="14" y="14" width="4" height="2" fill="#ddaa00"/>
  <rect x="8" y="16" width="16" height="14" fill="#886600"/>
  <rect x="9" y="17" width="14" height="12" fill="#aa8800"/>
  <rect x="11" y="19" width="10" height="8" fill="#ccaa00"/>
  <rect x="12" y="20" width="8" height="8" fill="#ffcc00"/>
  <rect x="13" y="21" width="6" height="6" fill="#ffdd44"/>
  <rect x="14" y="22" width="4" height="4" fill="#ffee88"/>
  <rect x="15" y="24" width="2" height="2" fill="#ffffff" opacity="0.7"/>
  <rect x="14" y="22" width="4" height="2" fill="#ffffff" opacity="0.3"/>
  <rect x="15" y="4" width="2" height="14" fill="#ddaa00" opacity="0.4"/>
</svg>