<svg xmlns="http://www.w3.org/2000/svg" viewBox="0 0 32 32" shape-rendering="crispEdges">
  <rect x="0" y="0" width="32" height="32" fill="#080800"/>
  <rect x="4" y="2" width="11" height="22" fill="#664400"/>
  <rect x="17" y="2" width="11" height="22" fill="#664400"/>
  <rect x="4" y="22" width="14" height="6" fill="#553300"/>
  <rect x="17" y="22" width="14" height="6" fill="#553300"/>
  <rect x="4" y="2" width="11" height="4" fill="#886600"/>
  <rect x="17" y="2" width="11" height="4" fill="#886600"/>
  <rect x="5" y="6" width="9" height="16" fill="#aa8800"/>
  <rect x="18" y="6" width="9" height="16" fill="#aa8800"/>
  <rect x="5" y="4" width="5" height="8" fill="#ffcc00" opacity="0.5"/>
  <rect x="18" y="6" width="5" height="6" fill="#ffcc00" opacity="0.5"/>
  <rect x="4" y="26" width="14" height="2" fill="#442200"/>
  <rect x="17" y="26" width="14" height="2" fill="#442200"/>
  <rect x="7" y="2" width="3" height="4" fill="#ffffff" opacity="0.4"/>
  <rect x="20" y="2" width="3" height="4" fill="#ffffff" opacity="0.4"/>
  <rect x="5" y="10" width="3" height="4" fill="#ffaa00" opacity="0.5"/>
  <rect x="18" y="12" width="3" height="4" fill="#ffaa00" opacity="0.5"/>
</svg>