<svg xmlns="http://www.w3.org/2000/svg" viewBox="0 0 32 32" shape-rendering="crispEdges">
  <rect x="0" y="0" width="32" height="32" fill="#050000"/>
  <rect x="7" y="2" width="8" height="28" fill="#220022"/>
  <rect x="17" y="2" width="8" height="28" fill="#220022"/>
  <rect x="7" y="2" width="8" height="4" fill="#110011"/>
  <rect x="17" y="2" width="8" height="4" fill="#110011"/>
  <rect x="8" y="6" width="6" height="18" fill="#330033"/>
  <rect x="18" y="6" width="6" height="18" fill="#330033"/>
  <rect x="7" y="20" width="8" height="6" fill="#220022"/>
  <rect x="17" y="20" width="8" height="6" fill="#220022"/>
  <rect x="7" y="28" width="8" height="2" fill="#110011"/>
  <rect x="17" y="28" width="8" height="2" fill="#110011"/>
  <rect x="9" y="6" width="3" height="4" fill="#cc00cc" opacity="0.4"/>
  <rect x="19" y="10" width="3" height="4" fill="#cc00cc" opacity="0.4"/>
  <rect x="10" y="14" width="4" height="6" fill="#880088" opacity="0.5"/>
  <rect x="19" y="14" width="3" height="6" fill="#880088" opacity="0.5"/>
</svg>