<svg xmlns="http://www.w3.org/2000/svg" viewBox="0 0 100 100">
  <defs>
    <linearGradient id="ironboot" x1="0" y1="0" x2="1" y2="0">
      <stop offset="0%" stop-color="#5a6a74"/>
      <stop offset="50%" stop-color="#8a9ba8"/>
      <stop offset="100%" stop-color="#4a5a64"/>
    </linearGradient>
  </defs>
  <!-- Left sabaton -->
  <path d="M14,28 L14,68 Q14,74 20,76 L40,76 Q46,72 48,68 L36,66 Q28,66 26,60 L24,28Z" fill="url(#ironboot)"/>
  <!-- Left articulated toe sections -->
  <path d="M36,66 Q44,64 48,68 Q44,74 36,74 Q28,74 28,68 Q32,66 36,66Z" fill="#5a6a74"/>
  <line x1="34" y1="66" x2="34" y2="74" stroke="#4a5a64" stroke-width="1" opacity="0.6"/>
  <line x1="40" y1="66" x2="42" y2="74" stroke="#4a5a64" stroke-width="1" opacity="0.6"/>
  <!-- Left sole -->
  <path d="M12,74 L12,80 Q20,84 40,84 Q50,80 50,74 L48,68 Q44,74 28,74 Q14,74 12,74Z" fill="#3a4a54"/>
  <!-- Left heel spur -->
  <rect x="12" y="66" width="6" height="18" rx="1" fill="#4a5a64"/>
  <polygon points="12,80 6,84 12,84" fill="#4a5a64"/>
  <!-- Highlight left -->
  <ellipse cx="20" cy="42" rx="5" ry="10" fill="#aabbc8" opacity="0.2"/>
  <!-- Right sabaton -->
  <path d="M52,68 Q54,72 64,76 L80,76 Q86,74 86,68 L86,28 L76,28 L74,60 Q72,66 64,66 Q56,66 52,68Z" fill="url(#ironboot)"/>
  <!-- Right toe sections -->
  <path d="M52,68 Q56,64 64,66 Q72,66 72,74 Q64,74 56,74 Q52,72 52,68Z" fill="#5a6a74"/>
  <line x1="60" y1="66" x2="58" y2="74" stroke="#4a5a64" stroke-width="1" opacity="0.6"/>
  <line x1="66" y1="66" x2="66" y2="74" stroke="#4a5a64" stroke-width="1" opacity="0.6"/>
  <!-- Right sole -->
  <path d="M50,74 Q50,80 60,84 L80,84 Q88,80 88,74 L86,68 Q86,74 72,74 Q56,74 50,74Z" fill="#3a4a54"/>
  <!-- Right heel spur -->
  <rect x="82" y="66" width="6" height="18" rx="1" fill="#4a5a64"/>
  <polygon points="88,80 94,84 88,84" fill="#4a5a64"/>
  <!-- Ankle plates -->
  <rect x="14" y="28" width="10" height="8" rx="1" fill="#5a6a74"/>
  <rect x="76" y="28" width="10" height="8" rx="1" fill="#5a6a74"/>
</svg>
