<svg xmlns="http://www.w3.org/2000/svg" viewBox="0 0 32 32" shape-rendering="crispEdges">
  <rect x="0" y="0" width="32" height="32" fill="#001a0a"/>
  <rect x="14" y="4" width="4" height="4" fill="#226644"/>
  <rect x="12" y="6" width="4" height="2" fill="#1a5533"/>
  <rect x="16" y="6" width="4" height="2" fill="#1a5533"/>
  <rect x="10" y="8" width="4" height="2" fill="#226644"/>
  <rect x="18" y="8" width="4" height="2" fill="#226644"/>
  <rect x="10" y="10" width="4" height="2" fill="#338855"/>
  <rect x="18" y="10" width="4" height="2" fill="#338855"/>
  <rect x="12" y="12" width="4" height="2" fill="#226644"/>
  <rect x="16" y="12" width="4" height="2" fill="#226644"/>
  <rect x="14" y="14" width="4" height="2" fill="#1a5533"/>
  <rect x="10" y="16" width="12" height="12" fill="#226644"/>
  <rect x="11" y="17" width="10" height="10" fill="#338855"/>
  <rect x="13" y="19" width="6" height="6" fill="#44aa66"/>
  <rect x="14" y="20" width="4" height="4" fill="#55bb77"/>
  <rect x="15" y="4" width="2" height="14" fill="#1a5533" opacity="0.4"/>
</svg>