<svg xmlns="http://www.w3.org/2000/svg" viewBox="0 0 100 100">
  <!-- Silk cord -->
  <path d="M50,10 Q36,12 28,20 Q22,32 22,46 Q24,60 32,70" stroke="#cc2222" stroke-width="2" fill="none"/>
  <path d="M50,10 Q64,12 72,20 Q78,32 78,46 Q76,60 68,70" stroke="#cc2222" stroke-width="2" fill="none"/>
  <!-- Jade teardrop pendant -->
  <path d="M50,68 Q34,72 32,84 Q34,96 50,98 Q66,96 68,84 Q66,72 50,68Z" fill="#2a8a4a"/>
  <!-- Jade translucency -->
  <path d="M50,68 Q38,72 36,82 Q38,90 50,92 Q62,90 64,82 Q62,72 50,68Z" fill="#4aaa6a" opacity="0.5"/>
  <!-- Dragon carving in jade -->
  <path d="M42,76 Q46,72 50,76 Q54,80 50,84 Q46,88 42,84 Q38,80 42,76Z" fill="none" stroke="#1a6a30" stroke-width="1.2" opacity="0.6"/>
  <path d="M50,72 Q54,68 56,72" stroke="#1a6a30" stroke-width="1" fill="none" opacity="0.5"/>
  <!-- Gold setting at top of jade -->
  <ellipse cx="50" cy="70" rx="10" ry="6" fill="#c8a820"/>
  <ellipse cx="50" cy="70" rx="7" ry="4" fill="#e8c840" opacity="0.6"/>
  <!-- Light shimmer through jade -->
  <ellipse cx="46" cy="80" rx="4" ry="6" fill="#6acc8a" opacity="0.3"/>
</svg>
