<svg xmlns="http://www.w3.org/2000/svg" viewBox="0 0 100 100">
  <!-- Shield body -->
  <path d="M14,14 L86,14 L86,56 Q50,94 14,56Z" fill="#3a4a8a"/>
  <!-- Quartered design -->
  <path d="M50,14 L50,88 Q50,88 50,88" stroke="#ffd700" stroke-width="3" fill="none"/>
  <line x1="14" y1="42" x2="86" y2="42" stroke="#ffd700" stroke-width="3"/>
  <!-- Top-left quarter - blue with fleur -->
  <path d="M14,14 L50,14 L50,42 L14,42Z" fill="#3a4a8a"/>
  <path d="M32,22 Q32,18 36,20 Q32,22 34,26 Q32,24 28,26 Q30,22 26,20 Q30,18 32,22Z" fill="#ffd700" opacity="0.7"/>
  <!-- Top-right quarter - red -->
  <path d="M50,14 L86,14 L86,42 L50,42Z" fill="#8a2a2a"/>
  <circle cx="68" cy="28" r="6" fill="#ffd700" opacity="0.6"/>
  <!-- Bottom-left quarter - red -->
  <path d="M14,42 L50,42 L50,74 Q32,88 14,74Z" fill="#8a2a2a"/>
  <!-- Bottom-right quarter - blue -->
  <path d="M50,42 L86,42 L86,74 Q68,88 50,74Z" fill="#3a4a8a"/>
  <!-- Gold rim -->
  <path d="M14,14 L86,14 L86,56 Q50,94 14,56Z" fill="none" stroke="#ffd700" stroke-width="4"/>
  <!-- Boss center at cross -->
  <circle cx="50" cy="42" r="7" fill="#ffd700"/>
  <circle cx="50" cy="42" r="4" fill="#c8a840"/>
  <circle cx="50" cy="42" r="2" fill="#ffd700"/>
</svg>
