<svg xmlns="http://www.w3.org/2000/svg" viewBox="0 0 100 100">
  <!-- Left greave -->
  <path d="M22,12 Q30,10 36,12 L40,74 Q30,78 22,74Z" fill="#8b5e3c"/>
  <!-- Right greave -->
  <path d="M64,12 Q72,10 78,12 L78,74 Q70,78 60,74Z" fill="#8b5e3c"/>
  <!-- Leather texture/creases left -->
  <line x1="26" y1="20" x2="27" y2="70" stroke="#6b4020" stroke-width="1" opacity="0.4"/>
  <line x1="34" y1="18" x2="37" y2="70" stroke="#6b4020" stroke-width="1" opacity="0.4"/>
  <!-- Leather texture right -->
  <line x1="66" y1="18" x2="63" y2="70" stroke="#6b4020" stroke-width="1" opacity="0.4"/>
  <line x1="74" y1="20" x2="75" y2="70" stroke="#6b4020" stroke-width="1" opacity="0.4"/>
  <!-- Knee cap pieces -->
  <ellipse cx="29" cy="46" rx="8" ry="7" fill="#7a5030"/>
  <ellipse cx="71" cy="46" rx="8" ry="7" fill="#7a5030"/>
  <ellipse cx="28" cy="45" rx="4" ry="3" fill="#a07050" opacity="0.3"/>
  <ellipse cx="70" cy="45" rx="4" ry="3" fill="#a07050" opacity="0.3"/>
  <!-- Straps -->
  <rect x="20" y="28" width="20" height="4" rx="1" fill="#6b4020"/>
  <rect x="60" y="28" width="20" height="4" rx="1" fill="#6b4020"/>
  <rect x="21" y="60" width="20" height="4" rx="1" fill="#6b4020"/>
  <rect x="60" y="60" width="20" height="4" rx="1" fill="#6b4020"/>
  <!-- Buckles -->
  <rect x="38" y="27" width="5" height="6" rx="1" fill="#8a8070"/>
  <rect x="57" y="27" width="5" height="6" rx="1" fill="#8a8070"/>
</svg>
