<svg xmlns="http://www.w3.org/2000/svg" viewBox="0 0 100 100">
  <!-- Left boot body -->
  <path d="M16,14 L16,68 Q16,76 24,78 L42,78 Q46,76 46,68 L40,64 L28,64 Q24,64 24,58 L24,14Z" fill="#8b5e3c"/>
  <!-- Left boot sole -->
  <path d="M14,76 Q14,84 24,86 L42,86 Q50,82 50,76 L42,78 Q24,78 14,76Z" fill="#4a2a10"/>
  <!-- Left heel -->
  <rect x="14" y="68" width="8" height="18" rx="2" fill="#3a1a08"/>
  <!-- Left buckle strap -->
  <rect x="16" y="44" width="12" height="5" rx="1" fill="#6b4020"/>
  <rect x="24" y="43" width="6" height="7" rx="1" fill="#8a8070"/>
  <!-- Right boot -->
  <path d="M56,14 L56,58 Q56,64 60,64 L72,64 L66,68 Q66,76 70,78 L86,78 Q86,76 84,68 L84,14Z" fill="#8b5e3c"/>
  <!-- Right boot sole -->
  <path d="M50,76 Q50,82 58,86 L84,86 Q88,82 86,76 L86,78 Q70,78 50,76Z" fill="#4a2a10"/>
  <!-- Right heel -->
  <rect x="78" y="68" width="8" height="18" rx="2" fill="#3a1a08"/>
  <!-- Right buckle -->
  <rect x="72" y="44" width="12" height="5" rx="1" fill="#6b4020"/>
  <rect x="70" y="43" width="6" height="7" rx="1" fill="#8a8070"/>
  <!-- Boot top rolled cuff left -->
  <rect x="16" y="14" width="8" height="10" rx="2" fill="#7a5030"/>
  <!-- Boot top right -->
  <rect x="76" y="14" width="8" height="10" rx="2" fill="#7a5030"/>
</svg>
