<svg xmlns="http://www.w3.org/2000/svg" viewBox="0 0 100 100">
  <!-- Left boot -->
  <path d="M14,20 L14,70 Q14,78 22,80 L44,80 Q46,78 46,72 L42,68 L30,68 Q26,68 26,62 L26,20Z" fill="#7a6a5a"/>
  <!-- Left sole -->
  <path d="M12,78 Q12,84 22,86 L44,86 Q50,84 50,78 L44,80 Q46,78 22,80 Q16,80 12,78Z" fill="#4a3a2a"/>
  <!-- Left heel -->
  <rect x="12" y="72" width="8" height="14" rx="2" fill="#3a2a1a"/>
  <!-- Right boot -->
  <path d="M54,20 L54,62 Q54,68 58,68 L72,68 L68,72 Q68,78 72,80 L86,80 Q86,78 86,70 L86,20Z" fill="#7a6a5a"/>
  <!-- Right sole -->
  <path d="M50,78 Q50,84 60,86 L86,86 Q90,84 88,78 L86,80 Q82,80 58,80 Q52,80 50,78Z" fill="#4a3a2a"/>
  <!-- Right heel -->
  <rect x="80" y="72" width="8" height="14" rx="2" fill="#3a2a1a"/>
  <!-- Simple lace line left -->
  <line x1="26" y1="30" x2="38" y2="30" stroke="#5a4a3a" stroke-width="1.5" opacity="0.5"/>
  <line x1="26" y1="40" x2="38" y2="40" stroke="#5a4a3a" stroke-width="1.5" opacity="0.5"/>
  <!-- Simple lace line right -->
  <line x1="62" y1="30" x2="74" y2="30" stroke="#5a4a3a" stroke-width="1.5" opacity="0.5"/>
  <line x1="62" y1="40" x2="74" y2="40" stroke="#5a4a3a" stroke-width="1.5" opacity="0.5"/>
</svg>
