<svg xmlns="http://www.w3.org/2000/svg" viewBox="0 0 100 100">
  <defs>
    <linearGradient id="steelgreave" x1="0" y1="0" x2="1" y2="0">
      <stop offset="0%" stop-color="#5a6a74"/>
      <stop offset="50%" stop-color="#9ab0bc"/>
      <stop offset="100%" stop-color="#4a5a64"/>
    </linearGradient>
  </defs>
  <!-- Left upper leg plate -->
  <path d="M18,10 Q28,6 36,10 L38,46 Q26,50 18,46Z" fill="url(#steelgreave)"/>
  <!-- Left knee cop -->
  <ellipse cx="27" cy="48" rx="10" ry="8" fill="#6a7a84"/>
  <ellipse cx="26" cy="47" rx="6" ry="4" fill="#9ab0bc" opacity="0.3"/>
  <!-- Left lower leg plate -->
  <path d="M18,52 Q26,48 36,52 L38,80 Q26,84 18,80Z" fill="url(#steelgreave)"/>
  <!-- Right upper leg plate -->
  <path d="M64,10 Q74,6 82,10 L82,46 Q72,50 62,46Z" fill="url(#steelgreave)"/>
  <!-- Right knee cop -->
  <ellipse cx="73" cy="48" rx="10" ry="8" fill="#6a7a84"/>
  <ellipse cx="72" cy="47" rx="6" ry="4" fill="#9ab0bc" opacity="0.3"/>
  <!-- Right lower leg -->
  <path d="M62,52 Q72,48 82,52 L82,80 Q72,84 62,80Z" fill="url(#steelgreave)"/>
  <!-- Highlights on plates -->
  <ellipse cx="24" cy="22" rx="5" ry="8" fill="#b8ccd8" opacity="0.2"/>
  <ellipse cx="70" cy="22" rx="5" ry="8" fill="#b8ccd8" opacity="0.2"/>
  <!-- Straps between plates -->
  <rect x="16" y="30" width="22" height="4" rx="1" fill="#4a5a64"/>
  <rect x="62" y="30" width="22" height="4" rx="1" fill="#4a5a64"/>
  <rect x="16" y="64" width="22" height="4" rx="1" fill="#4a5a64"/>
  <rect x="62" y="64" width="22" height="4" rx="1" fill="#4a5a64"/>
  <!-- Top waist band -->
  <rect x="16" y="6" width="68" height="6" rx="2" fill="#5a6a74"/>
</svg>
