<svg xmlns="http://www.w3.org/2000/svg" viewBox="0 0 100 100">
  <!-- Left boot -->
  <path d="M14,20 L14,68 Q14,74 20,76 L40,76 Q48,72 50,66 L36,64 Q26,64 24,58 L22,20Z" fill="#1a2a4a"/>
  <!-- Lightning on left boot -->
  <path d="M20,28 L26,38 L22,38 L30,52 L26,52 L34,66" stroke="#ffffff" stroke-width="1.8" fill="none" opacity="0.8"/>
  <path d="M30,24 L34,34 L30,34 L36,46" stroke="#74b9ff" stroke-width="1" fill="none" opacity="0.6"/>
  <!-- Storm cloud at boot top left -->
  <ellipse cx="20" cy="22" rx="10" ry="6" fill="#2a4a7a" opacity="0.8"/>
  <ellipse cx="28" cy="20" rx="8" ry="5" fill="#2a4a7a" opacity="0.7"/>
  <!-- Left sole - electrified -->
  <path d="M12,74 Q12,80 22,82 L40,82 Q50,78 50,74 L36,76 Q22,76 12,74Z" fill="#0a1a3a"/>
  <line x1="14" y1="78" x2="48" y2="78" stroke="#4a9eff" stroke-width="1" opacity="0.5"/>
  <rect x="12" y="66" width="6" height="16" rx="2" fill="#0a1a3a"/>
  <!-- Right boot -->
  <path d="M50,66 Q52,72 60,76 L80,76 Q86,74 86,68 L86,20 L78,20 L76,58 Q74,64 64,64 Q56,64 50,66Z" fill="#1a2a4a"/>
  <!-- Lightning right boot -->
  <path d="M80,28 L74,38 L78,38 L70,52 L74,52 L66,66" stroke="#ffffff" stroke-width="1.8" fill="none" opacity="0.8"/>
  <!-- Storm cloud right -->
  <ellipse cx="80" cy="22" rx="10" ry="6" fill="#2a4a7a" opacity="0.8"/>
  <ellipse cx="72" cy="20" rx="8" ry="5" fill="#2a4a7a" opacity="0.7"/>
  <!-- Right sole -->
  <path d="M50,74 Q50,80 60,82 L80,82 Q88,78 88,74 L84,76 Q64,76 50,74Z" fill="#0a1a3a"/>
  <line x1="52" y1="78" x2="86" y2="78" stroke="#4a9eff" stroke-width="1" opacity="0.5"/>
  <rect x="82" y="66" width="6" height="16" rx="2" fill="#0a1a3a"/>
  <!-- Rim glow -->
  <path d="M14,20 L14,68 Q14,74 20,76 L40,76 Q48,72 50,66 L36,64 Q26,64 24,58 L22,20Z" fill="none" stroke="#4a9eff" stroke-width="1.5" opacity="0.5"/>
  <path d="M50,66 Q52,72 60,76 L80,76 Q86,74 86,68 L86,20 L78,20 L76,58 Q74,64 64,64 Q56,64 50,66Z" fill="none" stroke="#4a9eff" stroke-width="1.5" opacity="0.5"/>
</svg>
