<svg xmlns="http://www.w3.org/2000/svg" viewBox="0 0 32 32" shape-rendering="crispEdges">
  <rect x="0" y="0" width="32" height="32" fill="#05000f"/>
  <rect x="14" y="4" width="4" height="4" fill="#440088"/>
  <rect x="12" y="6" width="4" height="2" fill="#330066"/>
  <rect x="16" y="6" width="4" height="2" fill="#330066"/>
  <rect x="10" y="8" width="4" height="2" fill="#440088"/>
  <rect x="18" y="8" width="4" height="2" fill="#440088"/>
  <rect x="10" y="10" width="4" height="2" fill="#220044"/>
  <rect x="18" y="10" width="4" height="2" fill="#220044"/>
  <rect x="12" y="12" width="4" height="2" fill="#330066"/>
  <rect x="16" y="12" width="4" height="2" fill="#330066"/>
  <rect x="14" y="14" width="4" height="2" fill="#440088"/>
  <rect x="10" y="16" width="12" height="12" fill="#220044"/>
  <rect x="11" y="17" width="10" height="10" fill="#330066"/>
  <rect x="13" y="19" width="6" height="6" fill="#440088"/>
  <rect x="14" y="20" width="4" height="4" fill="#6600cc"/>
  <rect x="15" y="22" width="2" height="4" fill="#8800ff" opacity="0.6"/>
  <rect x="15" y="4" width="2" height="14" fill="#330066" opacity="0.4"/>
</svg>