<svg xmlns="http://www.w3.org/2000/svg" viewBox="0 0 32 32" shape-rendering="crispEdges">
  <rect x="0" y="0" width="32" height="32" fill="#1a1a2e"/>
  <rect x="14" y="4" width="4" height="4" fill="#c0c0c0"/>
  <rect x="12" y="6" width="4" height="2" fill="#a0a0a0"/>
  <rect x="16" y="6" width="4" height="2" fill="#a0a0a0"/>
  <rect x="10" y="8" width="4" height="2" fill="#c0c0c0"/>
  <rect x="18" y="8" width="4" height="2" fill="#c0c0c0"/>
  <rect x="10" y="10" width="4" height="2" fill="#b0b0b0"/>
  <rect x="18" y="10" width="4" height="2" fill="#b0b0b0"/>
  <rect x="12" y="12" width="4" height="2" fill="#a0a0a0"/>
  <rect x="16" y="12" width="4" height="2" fill="#a0a0a0"/>
  <rect x="14" y="14" width="4" height="2" fill="#c0c0c0"/>
  <rect x="10" y="16" width="12" height="12" fill="#c0c0c0"/>
  <rect x="11" y="17" width="10" height="10" fill="#d0d0d0"/>
  <rect x="14" y="18" width="4" height="6" fill="#ff4400"/>
  <rect x="14" y="18" width="4" height="2" fill="#ff6600"/>
  <rect x="15" y="4" width="2" height="14" fill="#909090" opacity="0.4"/>
</svg>