<svg xmlns="http://www.w3.org/2000/svg" viewBox="0 0 100 100">
  <!-- Leather cord -->
  <path d="M50,10 Q34,14 28,22" stroke="#5a3a1a" stroke-width="2" fill="none"/>
  <path d="M50,10 Q66,14 72,22" stroke="#5a3a1a" stroke-width="2" fill="none"/>
  <path d="M28,22 Q20,36 22,52" stroke="#5a3a1a" stroke-width="2" fill="none"/>
  <path d="M72,22 Q80,36 78,52" stroke="#5a3a1a" stroke-width="2" fill="none"/>
  <path d="M22,52 Q24,62 32,70" stroke="#5a3a1a" stroke-width="2" fill="none"/>
  <path d="M78,52 Q76,62 68,70" stroke="#5a3a1a" stroke-width="2" fill="none"/>
  <!-- Wooden wolf charm body -->
  <ellipse cx="50" cy="72" rx="18" ry="14" fill="#8b5e2c"/>
  <!-- Carved wolf face -->
  <!-- Ears -->
  <polygon points="40,60 36,52 44,56" fill="#7a5020"/>
  <polygon points="60,60 64,52 56,56" fill="#7a5020"/>
  <!-- Eyes -->
  <ellipse cx="44" cy="66" rx="3" ry="3" fill="#3a2010"/>
  <ellipse cx="56" cy="66" rx="3" ry="3" fill="#3a2010"/>
  <circle cx="44" cy="66" r="1.5" fill="#a06020" opacity="0.6"/>
  <circle cx="56" cy="66" r="1.5" fill="#a06020" opacity="0.6"/>
  <!-- Snout -->
  <ellipse cx="50" cy="74" rx="6" ry="4" fill="#7a5020"/>
  <ellipse cx="50" cy="73" rx="2.5" ry="1.5" fill="#5a3010"/>
  <!-- Wood grain carving lines -->
  <line x1="34" y1="68" x2="42" y2="82" stroke="#6b4020" stroke-width="0.8" opacity="0.4"/>
  <line x1="66" y1="68" x2="58" y2="82" stroke="#6b4020" stroke-width="0.8" opacity="0.4"/>
  <!-- Rim -->
  <ellipse cx="50" cy="72" rx="18" ry="14" fill="none" stroke="#5a3010" stroke-width="1.5"/>
</svg>
