<svg xmlns="http://www.w3.org/2000/svg" viewBox="0 0 32 32" shape-rendering="crispEdges">
  <rect x="0" y="0" width="32" height="32" fill="#1a1a2e"/>
  <rect x="14" y="4" width="4" height="4" fill="#8B4513"/>
  <rect x="12" y="6" width="4" height="2" fill="#6B3310"/>
  <rect x="16" y="6" width="4" height="2" fill="#6B3310"/>
  <rect x="10" y="8" width="4" height="2" fill="#8B4513"/>
  <rect x="18" y="8" width="4" height="2" fill="#8B4513"/>
  <rect x="10" y="10" width="4" height="2" fill="#a05020"/>
  <rect x="18" y="10" width="4" height="2" fill="#a05020"/>
  <rect x="12" y="12" width="4" height="2" fill="#8B4513"/>
  <rect x="16" y="12" width="4" height="2" fill="#8B4513"/>
  <rect x="14" y="14" width="4" height="2" fill="#6B3310"/>
  <rect x="10" y="16" width="12" height="10" fill="#8B4513"/>
  <rect x="11" y="17" width="10" height="8" fill="#a05020"/>
  <rect x="13" y="19" width="6" height="4" fill="#c08040"/>
  <rect x="14" y="20" width="4" height="4" fill="#8B4513"/>
  <rect x="15" y="4" width="2" height="14" fill="#6B3310" opacity="0.4"/>
</svg>