<svg xmlns="http://www.w3.org/2000/svg" viewBox="0 0 64 64" shape-rendering="crispEdges">
  <!-- Tentacles everywhere -->
  <rect x="0" y="8" width="6" height="30" fill="#001a2a" opacity="0.9"/>
  <rect x="0" y="6" width="10" height="4" fill="#001a2a"/>
  <rect x="58" y="8" width="6" height="30" fill="#001a2a" opacity="0.9"/>
  <rect x="54" y="6" width="10" height="4" fill="#001a2a"/>
  <!-- Tentacle suckers -->
  <rect x="1" y="12" width="4" height="2" fill="#003344"/>
  <rect x="1" y="20" width="4" height="2" fill="#003344"/>
  <rect x="1" y="28" width="4" height="2" fill="#003344"/>
  <rect x="59" y="12" width="4" height="2" fill="#003344"/>
  <rect x="59" y="20" width="4" height="2" fill="#003344"/>
  <rect x="59" y="28" width="4" height="2" fill="#003344"/>
  <!-- More tentacles bottom -->
  <rect x="10" y="54" width="4" height="10" fill="#001a2a"/>
  <rect x="18" y="56" width="4" height="8" fill="#001a2a"/>
  <rect x="28" y="58" width="4" height="6" fill="#001a2a"/>
  <rect x="38" y="56" width="4" height="8" fill="#001a2a"/>
  <rect x="48" y="54" width="4" height="10" fill="#001a2a"/>
  <!-- Main body amorphous -->
  <rect x="10" y="18" width="44" height="38" fill="#001428"/>
  <rect x="6" y="24" width="52" height="28" fill="#001428"/>
  <rect x="12" y="12" width="40" height="10" fill="#001428"/>
  <!-- Body bioluminescence -->
  <rect x="14" y="26" width="6" height="6" fill="#0044aa" opacity="0.5"/>
  <rect x="26" y="22" width="6" height="6" fill="#0066cc" opacity="0.4"/>
  <rect x="40" y="30" width="6" height="6" fill="#0044aa" opacity="0.5"/>
  <rect x="20" y="38" width="6" height="6" fill="#0055bb" opacity="0.4"/>
  <rect x="36" y="42" width="6" height="6" fill="#0044aa" opacity="0.5"/>
  <rect x="48" y="34" width="6" height="6" fill="#0066cc" opacity="0.4"/>
  <!-- Central mass of eyes -->
  <rect x="14" y="16" width="10" height="8" fill="#000022"/>
  <rect x="26" y="14" width="10" height="10" fill="#000022"/>
  <rect x="38" y="16" width="10" height="8" fill="#000022"/>
  <rect x="20" y="24" width="8" height="8" fill="#000022"/>
  <rect x="34" y="24" width="8" height="8" fill="#000022"/>
  <!-- Eye glow -->
  <rect x="16" y="17" width="6" height="5" fill="#0066ff"/>
  <rect x="28" y="15" width="6" height="7" fill="#00aaff"/>
  <rect x="40" y="17" width="6" height="5" fill="#0066ff"/>
  <rect x="22" y="25" width="4" height="5" fill="#0044cc"/>
  <rect x="36" y="25" width="4" height="5" fill="#0044cc"/>
  <!-- Eye pupils -->
  <rect x="18" y="18" width="3" height="3" fill="#000"/>
  <rect x="30" y="16" width="3" height="4" fill="#000"/>
  <rect x="42" y="18" width="3" height="3" fill="#000"/>
  <rect x="23" y="26" width="2" height="3" fill="#000"/>
  <rect x="37" y="26" width="2" height="3" fill="#000"/>
  <!-- Massive maw -->
  <rect x="14" y="36" width="36" height="12" fill="#000000"/>
  <rect x="12" y="38" width="40" height="8" fill="#000011"/>
  <!-- Teeth rows -->
  <rect x="16" y="36" width="4" height="5" fill="#ddeeff"/>
  <rect x="22" y="36" width="4" height="4" fill="#ddeeff"/>
  <rect x="28" y="36" width="4" height="5" fill="#ddeeff"/>
  <rect x="34" y="36" width="4" height="4" fill="#ddeeff"/>
  <rect x="40" y="36" width="4" height="5" fill="#ddeeff"/>
  <rect x="16" y="46" width="4" height="4" fill="#ddeeff"/>
  <rect x="24" y="47" width="4" height="3" fill="#ddeeff"/>
  <rect x="34" y="47" width="4" height="3" fill="#ddeeff"/>
  <rect x="42" y="46" width="4" fill="#ddeeff" height="4"/>
  <!-- Water/abyss effect -->
  <rect x="0" y="60" width="64" height="4" fill="#001428" opacity="0.6"/>
  <rect x="0" y="62" width="64" height="2" fill="#0044aa" opacity="0.2"/>
</svg>
