<svg xmlns="http://www.w3.org/2000/svg" viewBox="0 0 64 64" width="64" height="64">
  <defs>
    <filter id="shadow" x="-20%" y="-20%" width="140%" height="140%">
      <feDropShadow dx="0" dy="1.5" stdDeviation="1.5" flood-opacity="0.35"/>
    </filter>
  </defs>
  <defs><filter id="glow" x="-40%" y="-40%" width="180%" height="180%">
      <feGaussianBlur stdDeviation="2.5" result="blur"/>
      <feFlood flood-color="#ffd54f" flood-opacity="0.5" result="color"/>
      <feComposite in="color" in2="blur" operator="in" result="glow"/>
      <feMerge><feMergeNode in="glow"/><feMergeNode in="SourceGraphic"/></feMerge>
    </filter>
  <radialGradient id="abys" cx="50%" cy="50%">
    <stop offset="0%" stop-color="#00bcd4"/><stop offset="100%" stop-color="#003040"/>
  </radialGradient>
</defs><g filter="url(#glow)">
  <ellipse cx="32" cy="36" rx="22" ry="26" fill="url(#abys)"/>
  <ellipse cx="32" cy="28" rx="16" ry="16" fill="#003040"/>
  <path d="M10,52 Q8,60 12,62 Q12,56 16,54" fill="#006064" opacity="0.7"/>
  <path d="M54,52 Q56,60 52,62 Q52,56 48,54" fill="#006064" opacity="0.7"/>
  <path d="M20,56 Q18,62 22,64 Q22,58 26,56" fill="#006064" opacity="0.7"/>
  <path d="M44,56 Q46,62 42,64 Q42,58 38,56" fill="#006064" opacity="0.7"/>
  <ellipse cx="26" cy="26" rx="6" ry="7" fill="#00e5ff" opacity="0.7"/>
  <ellipse cx="38" cy="26" rx="6" ry="7" fill="#00e5ff" opacity="0.7"/>
  <ellipse cx="26" cy="26" rx="3" ry="4.5" fill="#003040"/>
  <ellipse cx="38" cy="26" rx="3" ry="4.5" fill="#003040"/>
  <path d="M24,36 Q28,34 32,36 Q36,34 40,36" stroke="#00e5ff" stroke-width="2" fill="none"/>
  <path d="M22,40 Q26,44 32,42 Q38,44 42,40" stroke="#00bcd4" stroke-width="1.5" fill="none"/>
</g>
</svg>