<svg xmlns="http://www.w3.org/2000/svg" viewBox="0 0 64 64" width="64" height="64">
  <defs>
    <filter id="shadow" x="-20%" y="-20%" width="140%" height="140%">
      <feDropShadow dx="0" dy="1.5" stdDeviation="1.5" flood-opacity="0.35"/>
    </filter>
  </defs>
  <defs><filter id="glow" x="-40%" y="-40%" width="180%" height="180%">
      <feGaussianBlur stdDeviation="2.5" result="blur"/>
      <feFlood flood-color="#ab47bc" flood-opacity="0.5" result="color"/>
      <feComposite in="color" in2="blur" operator="in" result="glow"/>
      <feMerge><feMergeNode in="glow"/><feMergeNode in="SourceGraphic"/></feMerge>
    </filter>
  <radialGradient id="banshee" cx="50%" cy="30%">
    <stop offset="0%" stop-color="#f8bbd0" stop-opacity="0.9"/>
    <stop offset="70%" stop-color="#880e4f" stop-opacity="0.6"/>
    <stop offset="100%" stop-color="#1a0030" stop-opacity="0.2"/>
  </radialGradient>
</defs><g filter="url(#glow)">
  <path d="M12,60 Q16,44 20,48 Q24,38 28,44 Q30,36 32,40 Q34,36 36,44 Q40,38 44,48 Q48,44 52,60" fill="#880e4f" opacity="0.5"/>
  <ellipse cx="32" cy="28" rx="14" ry="18" fill="url(#banshee)"/>
  <path d="M22,14 Q28,8 32,12 Q36,8 42,14 Q38,10 34,14 Q32,10 30,14 Q26,10 22,14 Z" fill="#f8bbd0" opacity="0.8"/>
  <ellipse cx="27" cy="26" rx="4" ry="5" fill="#1a0030" opacity="0.9"/>
  <ellipse cx="37" cy="26" rx="4" ry="5" fill="#1a0030" opacity="0.9"/>
  <ellipse cx="27" cy="25" rx="2.5" ry="3" fill="#f48fb1"/>
  <ellipse cx="37" cy="25" rx="2.5" ry="3" fill="#f48fb1"/>
  <path d="M24,36 Q28,34 32,36 Q36,34 40,36" stroke="#f48fb1" stroke-width="1.5" fill="none"/>
  <path d="M28,38 Q32,42 36,38" stroke="#880e4f" stroke-width="1" fill="none"/>
</g>
</svg>