<svg xmlns="http://www.w3.org/2000/svg" viewBox="0 0 64 64" width="64" height="64">
  <defs>
    <filter id="shadow" x="-20%" y="-20%" width="140%" height="140%">
      <feDropShadow dx="0" dy="1.5" stdDeviation="1.5" flood-opacity="0.35"/>
    </filter>
  </defs>
  <defs></defs><g filter="url(#shadow)">
  <path d="M32,32 Q20,16 8,20 Q12,26 16,30 Q24,32 28,36 Z" fill="#4a148c"/>
  <path d="M32,32 Q44,16 56,20 Q52,26 48,30 Q40,32 36,36 Z" fill="#4a148c"/>
  <path d="M32,32 Q20,16 8,20 Q12,26 16,30 Q24,32 28,36 Z" fill="#9e9e9e" opacity="0.5"/>
  <path d="M32,32 Q44,16 56,20 Q52,26 48,30 Q40,32 36,36 Z" fill="#9e9e9e" opacity="0.5"/>
  <ellipse cx="32" cy="34" rx="8" ry="7" fill="#6a1b9a"/>
  <circle cx="29" cy="32" r="2" fill="#ffd54f"/><circle cx="35" cy="32" r="2" fill="#ffd54f"/>
  <circle cx="29" cy="32" r="1" fill="#000"/><circle cx="35" cy="32" r="1" fill="#000"/>
  <ellipse cx="28" cy="24" rx="3" ry="4" fill="#4a148c"/>
  <ellipse cx="36" cy="24" rx="3" ry="4" fill="#4a148c"/>
  <path d="M30,36 Q32,39 34,36" stroke="#ce93d8" stroke-width="1" fill="none"/>
</g>
</svg>