<svg xmlns="http://www.w3.org/2000/svg" viewBox="0 0 64 64" width="64" height="64">
  <defs>
    <filter id="shadow" x="-20%" y="-20%" width="140%" height="140%">
      <feDropShadow dx="0" dy="1.5" stdDeviation="1.5" flood-opacity="0.35"/>
    </filter>
  </defs>
  <defs><filter id="glow" x="-40%" y="-40%" width="180%" height="180%">
      <feGaussianBlur stdDeviation="2.5" result="blur"/>
      <feFlood flood-color="#ffd54f" flood-opacity="0.5" result="color"/>
      <feComposite in="color" in2="blur" operator="in" result="glow"/>
      <feMerge><feMergeNode in="glow"/><feMergeNode in="SourceGraphic"/></feMerge>
    </filter>
  <radialGradient id="celtitan" cx="50%" cy="30%">
    <stop offset="0%" stop-color="#ffffff"/><stop offset="50%" stop-color="#ffd54f"/><stop offset="100%" stop-color="#e65100"/>
  </radialGradient>
</defs><g filter="url(#glow)">
  <ellipse cx="32" cy="36" rx="20" ry="24" fill="url(#celtitan)"/>
  <ellipse cx="32" cy="24" rx="16" ry="16" fill="url(#celtitan)"/>
  <ellipse cx="32" cy="24" rx="16" ry="16" fill="none" stroke="#ffd54f" stroke-width="1.5"/>
  <path d="M16,6 Q20,0 32,4 Q44,0 48,6 Q40,2 36,8 Q34,4 32,6 Q30,4 28,8 Q24,2 16,6 Z" fill="#ffd54f"/>
  <ellipse cx="27" cy="22" rx="4" ry="5" fill="#ffffff" opacity="0.95"/>
  <ellipse cx="37" cy="22" rx="4" ry="5" fill="#ffffff" opacity="0.95"/>
  <ellipse cx="27" cy="22" rx="2" ry="3" fill="#e65100"/>
  <ellipse cx="37" cy="22" rx="2" ry="3" fill="#e65100"/>
  <path d="M26,30 Q32,34 38,30" stroke="#ffd54f" stroke-width="2" fill="none"/>
  <circle cx="32" cy="10" r="5" fill="white"/>
  <circle cx="32" cy="10" r="2.5" fill="#ffd54f" opacity="0.8"/>
</g>
</svg>