<svg xmlns="http://www.w3.org/2000/svg" viewBox="0 0 64 64" shape-rendering="crispEdges">
  <!-- Small tail -->
  <rect x="46" y="36" width="14" height="4" fill="#aa2800"/>
  <rect x="50" y="30" width="10" height="8" fill="#aa2800"/>
  <rect x="54" y="26" width="8" height="6" fill="#cc3300"/>
  <!-- Small wings - cute -->
  <rect x="24" y="14" width="4" height="16" fill="#880000"/>
  <rect x="26" y="14" width="12" height="3" fill="#880000"/>
  <rect x="32" y="16" width="10" height="3" fill="#880000"/>
  <rect x="38" y="18" width="8" height="3" fill="#880000"/>
  <rect x="26" y="17" width="4" height="12" fill="#aa1a00" opacity="0.5"/>
  <rect x="32" y="19" width="4" height="10" fill="#aa1a00" opacity="0.5"/>
  <!-- Body chubby -->
  <rect x="18" y="30" width="30" height="22" fill="#cc3300"/>
  <rect x="14" y="34" width="36" height="14" fill="#cc3300"/>
  <!-- Belly scales gold -->
  <rect x="20" y="36" width="20" height="14" fill="#ffaa00"/>
  <rect x="22" y="34" width="16" height="4" fill="#ffaa00"/>
  <!-- Scale pattern -->
  <rect x="14" y="34" width="6" height="4" fill="#aa2800"/>
  <rect x="42" y="38" width="6" height="4" fill="#aa2800"/>
  <!-- Head chubby cute -->
  <rect x="6" y="20" width="24" height="18" fill="#cc3300"/>
  <rect x="4" y="24" width="6" height="12" fill="#cc3300"/>
  <!-- Snout short -->
  <rect x="4" y="26" width="12" height="10" fill="#aa2800"/>
  <!-- Nose -->
  <rect x="4" y="26" width="6" height="4" fill="#ff4400"/>
  <rect x="4" y="27" width="2" height="2" fill="#cc2200"/>
  <rect x="7" y="27" width="2" height="2" fill="#cc2200"/>
  <!-- Small horns -->
  <rect x="18" y="14" width="4" height="8" fill="#660000"/>
  <rect x="24" y="12" width="4" height="10" fill="#660000"/>
  <!-- Eyes big and cute -->
  <rect x="8" y="22" width="10" height="8" fill="#ffcc00"/>
  <rect x="10" y="23" width="6" height="5" fill="#ff9900"/>
  <rect x="11" y="24" width="3" height="3" fill="#000"/>
  <rect x="11" y="24" width="1" height="1" fill="#fff"/>
  <!-- Tiny fire breath -->
  <rect x="0" y="28" width="6" height="3" fill="#ff6600"/>
  <rect x="0" y="26" width="4" height="4" fill="#ffaa00"/>
  <rect x="0" y="25" width="3" height="3" fill="#ffdd00"/>
  <!-- Tiny legs -->
  <rect x="18" y="50" width="8" height="12" fill="#aa2800"/>
  <rect x="28" y="50" width="8" height="12" fill="#aa2800"/>
  <rect x="38" y="50" width="8" height="10" fill="#aa2800"/>
  <!-- Claws -->
  <rect x="16" y="58" width="4" height="4" fill="#333"/>
  <rect x="21" y="58" width="4" height="4" fill="#333"/>
  <rect x="26" y="58" width="4" height="4" fill="#333"/>
  <rect x="31" y="58" width="4" height="4" fill="#333"/>
</svg>
