<svg xmlns="http://www.w3.org/2000/svg" viewBox="0 0 64 64" shape-rendering="crispEdges">
  <!-- Tail massive -->
  <rect x="44" y="36" width="20" height="6" fill="#6a1800"/>
  <rect x="48" y="28" width="16" height="10" fill="#6a1800"/>
  <rect x="52" y="20" width="12" height="10" fill="#6a1800"/>
  <rect x="56" y="14" width="8" height="8" fill="#8a2000"/>
  <rect x="58" y="10" width="6" height="6" fill="#aa2800"/>
  <!-- Tail spikes -->
  <rect x="48" y="26" width="5" height="5" fill="#330a00"/>
  <rect x="54" y="18" width="5" height="5" fill="#330a00"/>
  <rect x="58" y="12" width="4" height="4" fill="#330a00"/>
  <!-- Huge wings -->
  <rect x="20" y="2" width="6" height="28" fill="#550e00"/>
  <rect x="22" y="2" width="20" height="4" fill="#550e00"/>
  <rect x="36" y="4" width="18" height="4" fill="#550e00"/>
  <rect x="48" y="6" width="14" height="4" fill="#550e00"/>
  <rect x="56" y="8" width="8" height="6" fill="#550e00"/>
  <rect x="24" y="6" width="6" height="24" fill="#881800" opacity="0.5"/>
  <rect x="36" y="8" width="6" height="18" fill="#881800" opacity="0.5"/>
  <rect x="48" y="10" width="6" height="12" fill="#881800" opacity="0.5"/>
  <!-- Body massive -->
  <rect x="10" y="24" width="38" height="26" fill="#8a2000"/>
  <rect x="6" y="28" width="44" height="18" fill="#8a2000"/>
  <!-- Ancient scales -->
  <rect x="6" y="28" width="8" height="6" fill="#6a1800"/>
  <rect x="18" y="24" width="8" height="6" fill="#6a1800"/>
  <rect x="30" y="26" width="8" height="6" fill="#6a1800"/>
  <rect x="40" y="28" width="8" height="6" fill="#6a1800"/>
  <rect x="10" y="38" width="8" height="6" fill="#6a1800"/>
  <rect x="24" y="40" width="8" height="6" fill="#6a1800"/>
  <rect x="36" y="40" width="8" height="6" fill="#6a1800"/>
  <!-- Gold belly ancient -->
  <rect x="12" y="32" width="24" height="16" fill="#cc8800"/>
  <rect x="14" y="30" width="20" height="4" fill="#cc8800"/>
  <!-- Head massive with scars -->
  <rect x="2" y="14" width="28" height="18" fill="#8a2000"/>
  <rect x="0" y="18" width="6" height="12" fill="#8a2000"/>
  <!-- Battle scars -->
  <rect x="6" y="16" width="10" height="2" fill="#550e00"/>
  <rect x="10" y="20" width="8" height="2" fill="#550e00"/>
  <!-- Snout -->
  <rect x="0" y="20" width="16" height="12" fill="#6a1800"/>
  <!-- Nostril fire -->
  <rect x="0" y="20" width="8" height="4" fill="#ff6600"/>
  <rect x="0" y="20" width="4" height="2" fill="#ffcc00"/>
  <!-- Ancient horns multiple -->
  <rect x="14" y="6" width="6" height="12" fill="#330a00"/>
  <rect x="22" y="4" width="6" height="14" fill="#330a00"/>
  <rect x="10" y="10" width="4" height="8" fill="#330a00"/>
  <!-- Eyes ancient gold fire -->
  <rect x="6" y="16" width="12" height="10" fill="#cc6600"/>
  <rect x="8" y="17" width="8" height="7" fill="#ff8800"/>
  <rect x="9" y="18" width="4" height="4" fill="#ffcc00"/>
  <rect x="10" y="19" width="2" height="2" fill="#000"/>
  <!-- Fangs huge -->
  <rect x="2" y="28" width="6" height="8" fill="#e8e8d0"/>
  <rect x="10" y="28" width="5" height="6" fill="#e8e8d0"/>
  <!-- Legs -->
  <rect x="8" y="48" width="12" height="16" fill="#6a1800"/>
  <rect x="22" y="48" width="12" height="16" fill="#6a1800"/>
  <rect x="36" y="50" width="10" height="14" fill="#6a1800"/>
  <!-- Massive claws -->
  <rect x="4" y="60" width="6" height="4" fill="#222"/>
  <rect x="10" y="60" width="6" height="4" fill="#222"/>
  <rect x="18" y="60" width="6" height="4" fill="#222"/>
  <rect x="24" y="60" width="6" height="4" fill="#222"/>
</svg>
