<svg xmlns="http://www.w3.org/2000/svg" viewBox="0 0 64 64" shape-rendering="crispEdges">
  <!-- Tail bushy -->
  <rect x="48" y="22" width="10" height="5" fill="#5a4a30"/>
  <rect x="52" y="16" width="10" height="8" fill="#5a4a30"/>
  <rect x="54" y="12" width="8" height="6" fill="#7a6a48"/>
  <rect x="56" y="10" width="6" height="4" fill="#9a8a60"/>
  <!-- Body brown wolf -->
  <rect x="16" y="28" width="36" height="20" fill="#6a5a38"/>
  <rect x="12" y="32" width="42" height="14" fill="#6a5a38"/>
  <!-- Fur markings -->
  <rect x="20" y="28" width="12" height="4" fill="#8a7a50"/>
  <rect x="36" y="32" width="10" height="4" fill="#8a7a50"/>
  <!-- Underbelly cream -->
  <rect x="18" y="36" width="24" height="10" fill="#c8b888"/>
  <!-- Head -->
  <rect x="4" y="20" width="26" height="22" fill="#6a5a38"/>
  <rect x="2" y="24" width="6" height="14" fill="#6a5a38"/>
  <!-- Snout -->
  <rect x="2" y="26" width="14" height="14" fill="#5a4a28"/>
  <!-- Nose black wet -->
  <rect x="2" y="26" width="8" height="5" fill="#1a1a1a"/>
  <rect x="3" y="27" width="3" height="2" fill="#333"/>
  <rect x="7" y="27" width="3" height="2" fill="#333"/>
  <!-- Mouth -->
  <rect x="2" y="34" width="14" height="6" fill="#4a3a18"/>
  <rect x="4" y="32" width="4" height="8" fill="#e8e8d0"/>
  <rect x="10" y="32" width="4" height="7" fill="#e8e8d0"/>
  <!-- Eyes amber -->
  <rect x="12" y="22" width="10" height="8" fill="#cc8800"/>
  <rect x="14" y="23" width="6" height="5" fill="#ffaa00"/>
  <rect x="15" y="24" width="3" height="3" fill="#1a0a00"/>
  <rect x="15" y="24" width="1" height="1" fill="#fff"/>
  <!-- Ear pointed -->
  <rect x="18" y="12" width="8" height="12" fill="#6a5a38"/>
  <rect x="20" y="14" width="4" height="8" fill="#cc8080"/>
  <rect x="28" y="14" width="6" height="10" fill="#6a5a38"/>
  <rect x="30" y="16" width="3" height="6" fill="#cc8080"/>
  <!-- Legs -->
  <rect x="16" y="46" width="9" height="16" fill="#5a4a28"/>
  <rect x="27" y="46" width="9" height="16" fill="#5a4a28"/>
  <rect x="38" y="46" width="9" height="16" fill="#5a4a28"/>
  <rect x="48" y="44" width="9" height="14" fill="#5a4a28"/>
  <!-- Paws -->
  <rect x="14" y="58" width="13" height="6" fill="#4a3a18"/>
  <rect x="25" y="58" width="13" height="6" fill="#4a3a18"/>
  <rect x="36" y="58" width="13" height="6" fill="#4a3a18"/>
  <rect x="46" y="56" width="13" height="6" fill="#4a3a18"/>
</svg>
