<svg xmlns="http://www.w3.org/2000/svg" viewBox="0 0 64 64" shape-rendering="crispEdges">
  <!-- Body - massive and blocky -->
  <rect x="12" y="24" width="40" height="32" fill="#787878"/>
  <rect x="8" y="28" width="8" height="24" fill="#787878"/>
  <rect x="48" y="28" width="8" height="24" fill="#787878"/>
  <!-- Body cracks/texture -->
  <rect x="18" y="28" width="2" height="12" fill="#505050"/>
  <rect x="30" y="32" width="2" height="16" fill="#505050"/>
  <rect x="44" y="36" width="2" height="8" fill="#505050"/>
  <rect x="14" y="40" width="16" height="2" fill="#505050"/>
  <rect x="36" y="44" width="10" height="2" fill="#505050"/>
  <!-- Head -->
  <rect x="16" y="6" width="32" height="22" fill="#6e6e6e"/>
  <rect x="12" y="10" width="8" height="14" fill="#6e6e6e"/>
  <rect x="44" y="10" width="8" height="14" fill="#6e6e6e"/>
  <!-- Head brow -->
  <rect x="14" y="6" width="36" height="4" fill="#888888"/>
  <!-- Glowing eyes -->
  <rect x="18" y="14" width="10" height="8" fill="#e05000"/>
  <rect x="36" y="14" width="10" height="8" fill="#e05000"/>
  <rect x="20" y="15" width="6" height="5" fill="#ff8800"/>
  <rect x="38" y="15" width="6" height="5" fill="#ff8800"/>
  <rect x="22" y="16" width="3" height="3" fill="#ffcc00"/>
  <rect x="40" y="16" width="3" height="3" fill="#ffcc00"/>
  <!-- Stone mouth -->
  <rect x="22" y="22" width="20" height="4" fill="#404040"/>
  <rect x="24" y="22" width="3" height="2" fill="#888"/>
  <rect x="29" y="22" width="3" height="2" fill="#888"/>
  <rect x="34" y="22" width="3" height="2" fill="#888"/>
  <rect x="39" y="22" width="2" height="2" fill="#888"/>
  <!-- Fists -->
  <rect x="0" y="30" width="12" height="14" fill="#6a6a6a"/>
  <rect x="52" y="30" width="12" height="14" fill="#6a6a6a"/>
  <!-- Fist cracks -->
  <rect x="4" y="34" width="4" height="6" fill="#505050"/>
  <rect x="56" y="34" width="4" height="6" fill="#505050"/>
  <!-- Legs -->
  <rect x="14" y="56" width="14" height="8" fill="#6e6e6e"/>
  <rect x="36" y="56" width="14" height="8" fill="#6e6e6e"/>
  <!-- Feet -->
  <rect x="12" y="60" width="18" height="4" fill="#585858"/>
  <rect x="34" y="60" width="18" height="4" fill="#585858"/>
  <!-- Highlight on top -->
  <rect x="16" y="6" width="20" height="2" fill="#9a9a9a"/>
  <rect x="12" y="24" width="16" height="2" fill="#9a9a9a"/>
</svg>
