<svg xmlns="http://www.w3.org/2000/svg" viewBox="0 0 64 64" shape-rendering="crispEdges">
  <!-- Huge body -->
  <rect x="8" y="26" width="48" height="30" fill="#5a7a30"/>
  <rect x="4" y="30" width="56" height="22" fill="#5a7a30"/>
  <!-- Regen glow -->
  <rect x="8" y="26" width="48" height="4" fill="#7aaa40"/>
  <rect x="12" y="44" width="40" height="4" fill="#7aaa40"/>
  <!-- Green skin texture -->
  <rect x="10" y="32" width="6" height="8" fill="#4a6a20"/>
  <rect x="42" y="36" width="8" height="6" fill="#4a6a20"/>
  <rect x="20" y="46" width="8" height="6" fill="#4a6a20"/>
  <!-- Head massive -->
  <rect x="12" y="6" width="40" height="24" fill="#5a7a30"/>
  <rect x="8" y="10" width="8" height="16" fill="#5a7a30"/>
  <rect x="48" y="10" width="8" height="16" fill="#5a7a30"/>
  <!-- Skull bumps -->
  <rect x="14" y="4" width="10" height="6" fill="#7aaa40"/>
  <rect x="40" y="4" width="10" height="6" fill="#7aaa40"/>
  <rect x="28" y="2" width="8" height="6" fill="#7aaa40"/>
  <!-- Eyes small beady red -->
  <rect x="14" y="14" width="10" height="8" fill="#cc0000"/>
  <rect x="40" y="14" width="10" height="8" fill="#cc0000"/>
  <rect x="16" y="15" width="6" height="5" fill="#ff2020"/>
  <rect x="42" y="15" width="6" height="5" fill="#ff2020"/>
  <rect x="17" y="16" width="3" height="3" fill="#000"/>
  <rect x="43" y="16" width="3" height="3" fill="#000"/>
  <!-- Flat nose -->
  <rect x="26" y="20" width="12" height="6" fill="#4a6a20"/>
  <rect x="26" y="21" width="4" height="3" fill="#2a4a10"/>
  <rect x="36" y="21" width="4" height="3" fill="#2a4a10"/>
  <!-- Wide jaw with tusks -->
  <rect x="14" y="26" width="36" height="4" fill="#1a2a08"/>
  <rect x="16" y="24" width="6" height="6" fill="#e8e8c0"/>
  <rect x="42" y="24" width="6" height="6" fill="#e8e8c0"/>
  <!-- Massive arms -->
  <rect x="0" y="28" width="10" height="24" fill="#4a6a20"/>
  <rect x="54" y="28" width="10" height="24" fill="#4a6a20"/>
  <!-- Club fists -->
  <rect x="0" y="48" width="14" height="14" fill="#3a5010"/>
  <rect x="50" y="48" width="14" height="14" fill="#3a5010"/>
  <!-- Knuckles -->
  <rect x="0" y="46" width="5" height="4" fill="#5a7a30"/>
  <rect x="6" y="46" width="5" height="4" fill="#5a7a30"/>
  <rect x="50" y="46" width="5" height="4" fill="#5a7a30"/>
  <rect x="56" y="46" width="5" height="4" fill="#5a7a30"/>
  <!-- Legs short thick -->
  <rect x="12" y="56" width="16" height="8" fill="#4a6a20"/>
  <rect x="36" y="56" width="16" height="8" fill="#4a6a20"/>
  <!-- Feet -->
  <rect x="10" y="60" width="20" height="4" fill="#2a4a10"/>
  <rect x="34" y="60" width="20" height="4" fill="#2a4a10"/>
  <!-- Regen sparkles -->
  <rect x="6" y="22" width="4" height="4" fill="#00ff44" opacity="0.4"/>
  <rect x="54" y="28" width="4" height="4" fill="#00ff44" opacity="0.4"/>
  <rect x="30" y="2" width="4" height="4" fill="#00ff44" opacity="0.3"/>
</svg>
