<svg xmlns="http://www.w3.org/2000/svg" viewBox="0 0 128 64" shape-rendering="crispEdges">
  <!-- Background -->
  <rect x="0" y="0" width="128" height="64" fill="#0a0014"/>
  <!-- Sword left -->
  <rect x="8" y="8" width="6" height="40" fill="#c0c0c0"/>
  <rect x="6" y="10" width="10" height="36" fill="#aaaaaa"/>
  <rect x="8" y="8" width="6" height="8" fill="#d4a000"/>
  <rect x="4" y="28" width="18" height="5" fill="#888"/>
  <rect x="6" y="29" width="14" height="3" fill="#aaa"/>
  <!-- Sword right -->
  <rect x="114" y="8" width="6" height="40" fill="#c0c0c0"/>
  <rect x="112" y="10" width="10" height="36" fill="#aaaaaa"/>
  <rect x="114" y="8" width="6" height="8" fill="#d4a000"/>
  <rect x="106" y="28" width="18" height="5" fill="#888"/>
  <rect x="108" y="29" width="14" height="3" fill="#aaa"/>
  <!-- M -->
  <rect x="20" y="14" width="6" height="32" fill="#d4a000"/>
  <rect x="26" y="14" width="6" height="12" fill="#d4a000"/>
  <rect x="32" y="20" width="6" height="6" fill="#d4a000"/>
  <rect x="38" y="14" width="6" height="12" fill="#d4a000"/>
  <rect x="44" y="14" width="6" height="32" fill="#d4a000"/>
  <!-- M highlight -->
  <rect x="20" y="14" width="6" height="4" fill="#ffcc00"/>
  <rect x="44" y="14" width="6" height="4" fill="#ffcc00"/>
  <!-- M M O text -->
  <rect x="52" y="14" width="6" height="32" fill="#ff4400"/>
  <rect x="58" y="14" width="6" height="12" fill="#ff4400"/>
  <rect x="64" y="20" width="6" height="6" fill="#ff4400"/>
  <rect x="70" y="14" width="6" height="12" fill="#ff4400"/>
  <rect x="76" y="14" width="6" height="32" fill="#ff4400"/>
  <!-- O -->
  <rect x="84" y="14" width="22" height="6" fill="#8800ff"/>
  <rect x="84" y="44" width="22" height="6" fill="#8800ff"/>
  <rect x="84" y="14" width="6" height="36" fill="#8800ff"/>
  <rect x="100" y="14" width="6" height="36" fill="#8800ff"/>
  <rect x="86" y="16" width="18" height="4" fill="#aa44ff"/>
  <!-- Star accents -->
  <rect x="2" y="4" width="4" height="4" fill="#d4a000" opacity="0.6"/>
  <rect x="122" y="4" width="4" height="4" fill="#d4a000" opacity="0.6"/>
  <rect x="60" y="4" width="8" height="4" fill="#ffcc00" opacity="0.4"/>
</svg>
