<svg xmlns="http://www.w3.org/2000/svg" viewBox="0 0 64 64" width="64" height="64">
  <defs>
    <filter id="shadow" x="-20%" y="-20%" width="140%" height="140%">
      <feDropShadow dx="0" dy="1.5" stdDeviation="1.5" flood-opacity="0.35"/>
    </filter>
  </defs>
  <defs><filter id="glow" x="-40%" y="-40%" width="180%" height="180%">
      <feGaussianBlur stdDeviation="2.5" result="blur"/>
      <feFlood flood-color="#ffd54f" flood-opacity="0.5" result="color"/>
      <feComposite in="color" in2="blur" operator="in" result="glow"/>
      <feMerge><feMergeNode in="glow"/><feMergeNode in="SourceGraphic"/></feMerge>
    </filter>
  <radialGradient id="phoenix" cx="50%" cy="30%">
    <stop offset="0%" stop-color="#ffffff"/><stop offset="30%" stop-color="#ffd54f"/>
    <stop offset="70%" stop-color="#f44336"/><stop offset="100%" stop-color="#4e342e"/>
  </radialGradient>
</defs><g filter="url(#glow)">
  <path d="M32,16 Q20,8 8,14 Q16,20 22,24 Q28,26 32,28 Q36,26 42,24 Q48,20 56,14 Q44,8 32,16" fill="url(#phoenix)"/>
  <path d="M32,28 Q28,36 26,44 Q28,52 32,56 Q36,52 38,44 Q36,36 32,28" fill="#f44336" opacity="0.8"/>
  <ellipse cx="32" cy="28" rx="9" ry="10" fill="url(#phoenix)"/>
  <ellipse cx="32" cy="28" rx="7" ry="8" fill="#ffd54f" opacity="0.7"/>
  <circle cx="29" cy="25" r="2.5" fill="#0d47a1"/><circle cx="35" cy="25" r="2.5" fill="#0d47a1"/>
  <circle cx="29.5" cy="24.5" r="1" fill="white"/><circle cx="35.5" cy="24.5" r="1" fill="white"/>
  <path d="M29,31 Q32,34 35,31" stroke="#e65100" stroke-width="1.5" fill="none"/>
  <path d="M8,14 Q2,8 4,2 Q8,10 12,12" fill="#ffd54f" opacity="0.7"/>
  <path d="M56,14 Q62,8 60,2 Q56,10 52,12" fill="#ffd54f" opacity="0.7"/>
</g>
</svg>