<svg xmlns="http://www.w3.org/2000/svg" viewBox="0 0 64 64" shape-rendering="crispEdges">
  <rect x="2" y="20" width="24" height="4" fill="#cc4400" opacity="0.8"/>
  <rect x="2" y="14" width="16" height="8" fill="#cc4400" opacity="0.7"/>
  <rect x="2" y="10" width="10" height="6" fill="#ff6600" opacity="0.6"/>
  <rect x="38" y="20" width="24" height="4" fill="#cc4400" opacity="0.8"/>
  <rect x="46" y="14" width="16" height="8" fill="#cc4400" opacity="0.7"/>
  <rect x="52" y="10" width="10" height="6" fill="#ff6600" opacity="0.6"/>
  <rect x="20" y="16" width="24" height="30" fill="#cc4400"/>
  <rect x="16" y="22" width="32" height="22" fill="#cc4400"/>
  <rect x="22" y="10" width="20" height="10" fill="#cc4400"/>
  <rect x="26" y="6" width="12" height="6" fill="#ff6600"/>
  <rect x="22" y="18" width="8" height="8" fill="#ffcc00" opacity="0.9"/>
  <rect x="34" y="18" width="8" height="8" fill="#ffcc00" opacity="0.9"/>
  <rect x="24" y="19" width="4" height="5" fill="#ffee88"/>
  <rect x="36" y="19" width="4" height="5" fill="#ffee88"/>
  <rect x="28" y="30" width="8" height="6" fill="#ffcc00" opacity="0.6"/>
  <rect x="26" y="8" width="4" height="4" fill="#ffcc00"/>
  <rect x="34" y="6" width="4" height="6" fill="#ffcc00"/>
  <rect x="30" y="4" width="4" height="4" fill="#ffee88"/>
  <rect x="18" y="44" width="6" height="14" fill="#ff6600" opacity="0.8"/>
  <rect x="26" y="46" width="6" height="12" fill="#ffcc00" opacity="0.7"/>
  <rect x="32" y="46" width="6" height="12" fill="#ffcc00" opacity="0.7"/>
  <rect x="40" y="44" width="6" height="14" fill="#ff6600" opacity="0.8"/>
  <rect x="16" y="56" width="8" height="4" fill="#ffcc00" opacity="0.5"/>
  <rect x="40" y="56" width="8" height="4" fill="#ffcc00" opacity="0.5"/>
</svg>