<svg xmlns="http://www.w3.org/2000/svg" viewBox="0 0 64 64" shape-rendering="crispEdges">
  <rect x="44" y="30" width="14" height="4" fill="#aa2800"/>
  <rect x="48" y="24" width="10" height="8" fill="#aa2800"/>
  <rect x="52" y="20" width="8" height="6" fill="#cc3300"/>
  <rect x="22" y="10" width="4" height="18" fill="#aa2800" opacity="0.8"/>
  <rect x="24" y="10" width="12" height="3" fill="#aa2800" opacity="0.8"/>
  <rect x="30" y="12" width="10" height="3" fill="#aa2800" opacity="0.8"/>
  <rect x="16" y="26" width="32" height="22" fill="#cc3300"/>
  <rect x="12" y="30" width="38" height="14" fill="#cc3300"/>
  <rect x="18" y="34" width="20" height="12" fill="#ff6600" opacity="0.5"/>
  <rect x="4" y="20" width="22" height="16" fill="#cc3300"/>
  <rect x="2" y="24" width="6" height="10" fill="#cc3300"/>
  <rect x="14" y="12" width="4" height="10" fill="#aa2800"/>
  <rect x="20" y="10" width="4" height="12" fill="#aa2800"/>
  <rect x="6" y="22" width="10" height="8" fill="#ff6600" opacity="0.8"/>
  <rect x="8" y="23" width="6" height="5" fill="#ffcc00"/>
  <rect x="9" y="24" width="3" height="3" fill="#000"/>
  <rect x="2" y="28" width="8" height="4" fill="#ff6600"/>
  <rect x="2" y="27" width="4" height="3" fill="#ff6600"/>
  <rect x="16" y="46" width="8" height="14" fill="#aa2800"/>
  <rect x="26" y="46" width="8" height="14" fill="#aa2800"/>
  <rect x="36" y="48" width="8" height="12" fill="#aa2800"/>
</svg>