<svg xmlns="http://www.w3.org/2000/svg" viewBox="0 0 64 64" width="64" height="64">
  <defs>
    <filter id="shadow" x="-20%" y="-20%" width="140%" height="140%">
      <feDropShadow dx="0" dy="1.5" stdDeviation="1.5" flood-opacity="0.35"/>
    </filter>
  </defs>
  <defs><filter id="glow" x="-40%" y="-40%" width="180%" height="180%">
      <feGaussianBlur stdDeviation="2.5" result="blur"/>
      <feFlood flood-color="#42a5f5" flood-opacity="0.5" result="color"/>
      <feComposite in="color" in2="blur" operator="in" result="glow"/>
      <feMerge><feMergeNode in="glow"/><feMergeNode in="SourceGraphic"/></feMerge>
    </filter>
  <linearGradient id="bdragon" x1="0" y1="0" x2="1" y2="1">
    <stop offset="0%" stop-color="#ff8f00"/><stop offset="100%" stop-color="#bf360c"/>
  </linearGradient>
</defs><g filter="url(#glow)">
  <ellipse cx="32" cy="38" rx="14" ry="16" fill="url(#bdragon)"/>
  <ellipse cx="32" cy="30" rx="12" ry="12" fill="#ff8f00"/>
  <path d="M22,20 Q24,14 28,18" fill="#bf360c"/>
  <path d="M42,20 Q40,14 36,18" fill="#bf360c"/>
  <ellipse cx="22" cy="22" rx="5" ry="6" fill="#ff8f00"/>
  <ellipse cx="42" cy="22" rx="5" ry="6" fill="#ff8f00"/>
  <ellipse cx="28" cy="28" rx="4" ry="5" fill="#ffd54f" opacity="0.9"/>
  <ellipse cx="36" cy="28" rx="4" ry="5" fill="#ffd54f" opacity="0.9"/>
  <ellipse cx="28" cy="28" rx="2" ry="3" fill="#000"/>
  <ellipse cx="36" cy="28" rx="2" ry="3" fill="#000"/>
  <path d="M28,36 Q32,40 36,36" stroke="#bf360c" stroke-width="1.5" fill="none"/>
  <path d="M36,28 Q42,22 46,24 Q42,28 38,32" fill="#ff8f00" opacity="0.7"/>
  <path d="M28,28 Q22,22 18,24 Q22,28 26,32" fill="#ff8f00" opacity="0.7"/>
  <path d="M32,54 Q28,50 28,44" stroke="#bf360c" stroke-width="3" stroke-linecap="round" fill="none"/>
</g>
</svg>