<svg xmlns="http://www.w3.org/2000/svg" viewBox="0 0 64 64" width="64" height="64">
  <defs>
    <filter id="shadow" x="-20%" y="-20%" width="140%" height="140%">
      <feDropShadow dx="0" dy="1.5" stdDeviation="1.5" flood-opacity="0.35"/>
    </filter>
  </defs>
  <defs><filter id="glow" x="-40%" y="-40%" width="180%" height="180%">
      <feGaussianBlur stdDeviation="2.5" result="blur"/>
      <feFlood flood-color="#ffd54f" flood-opacity="0.5" result="color"/>
      <feComposite in="color" in2="blur" operator="in" result="glow"/>
      <feMerge><feMergeNode in="glow"/><feMergeNode in="SourceGraphic"/></feMerge>
    </filter>
  <linearGradient id="crab" x1="0" y1="0" x2="1" y2="1">
    <stop offset="0%" stop-color="#ffd54f"/><stop offset="100%" stop-color="#f57f17"/>
  </linearGradient>
</defs><g filter="url(#glow)">
  <ellipse cx="32" cy="38" rx="20" ry="16" fill="url(#crab)"/>
  <ellipse cx="32" cy="38" rx="16" ry="12" fill="#ffa000"/>
  <path d="M12,36 Q6,28 8,20 Q10,30 16,32" fill="url(#crab)"/>
  <path d="M52,36 Q58,28 56,20 Q54,30 48,32" fill="url(#crab)"/>
  <path d="M14,46 Q8,50 6,58 Q10,52 16,48" fill="url(#crab)"/>
  <path d="M50,46 Q56,50 58,58 Q54,52 48,48" fill="url(#crab)"/>
  <ellipse cx="20" cy="42" rx="5" ry="4" fill="#ff8f00"/>
  <ellipse cx="44" cy="42" rx="5" ry="4" fill="#ff8f00"/>
  <ellipse cx="26" cy="48" rx="4" ry="3.5" fill="#ff8f00"/>
  <ellipse cx="38" cy="48" rx="4" ry="3.5" fill="#ff8f00"/>
  <ellipse cx="32" cy="32" rx="10" ry="8" fill="#ffc107"/>
  <circle cx="28" cy="30" r="4" fill="white" opacity="0.9"/><circle cx="36" cy="30" r="4" fill="white" opacity="0.9"/>
  <circle cx="28" cy="30" r="2.5" fill="#ffd54f"/><circle cx="36" cy="30" r="2.5" fill="#ffd54f"/>
  <circle cx="28" cy="30" r="1" fill="#000"/><circle cx="36" cy="30" r="1" fill="#000"/>
</g>
</svg>