<svg xmlns="http://www.w3.org/2000/svg" viewBox="0 0 64 64" shape-rendering="crispEdges">
  <rect x="0" y="28" width="14" height="8" fill="#d4a000"/>
  <rect x="0" y="22" width="10" height="8" fill="#d4a000"/>
  <rect x="0" y="36" width="10" height="8" fill="#d4a000"/>
  <rect x="50" y="28" width="14" height="8" fill="#d4a000"/>
  <rect x="54" y="22" width="10" height="8" fill="#d4a000"/>
  <rect x="54" y="36" width="10" height="8" fill="#d4a000"/>
  <rect x="0" y="20" width="10" height="6" fill="#ffcc00"/>
  <rect x="54" y="20" width="10" height="6" fill="#ffcc00"/>
  <rect x="12" y="24" width="40" height="30" fill="#d4a000"/>
  <rect x="8" y="30" width="48" height="20" fill="#d4a000"/>
  <rect x="14" y="26" width="36" height="26" fill="#ffcc00"/>
  <rect x="10" y="32" width="44" height="16" fill="#ffcc00"/>
  <rect x="20" y="30" width="10" height="8" fill="#ffffff" opacity="0.8"/>
  <rect x="34" y="30" width="10" height="8" fill="#ffffff" opacity="0.8"/>
  <rect x="22" y="31" width="6" height="5" fill="#fff8cc"/>
  <rect x="36" y="31" width="6" height="5" fill="#fff8cc"/>
  <rect x="24" y="32" width="3" height="3" fill="#000"/>
  <rect x="38" y="32" width="3" height="3" fill="#000"/>
  <rect x="22" y="42" width="20" height="4" fill="#d4a000"/>
  <rect x="18" y="50" width="8" height="10" fill="#ffcc00"/>
  <rect x="28" y="52" width="8" height="8" fill="#ffcc00"/>
  <rect x="38" y="50" width="8" height="10" fill="#ffcc00"/>
  <rect x="16" y="56" width="10" height="4" fill="#d4a000"/>
  <rect x="26" y="58" width="12" height="4" fill="#d4a000"/>
  <rect x="38" y="56" width="10" height="4" fill="#d4a000"/>
</svg>