<svg xmlns="http://www.w3.org/2000/svg" viewBox="0 0 64 64" width="64" height="64">
  <defs>
    <filter id="shadow" x="-20%" y="-20%" width="140%" height="140%">
      <feDropShadow dx="0" dy="1.5" stdDeviation="1.5" flood-opacity="0.35"/>
    </filter>
  </defs>
  <defs><filter id="glow" x="-40%" y="-40%" width="180%" height="180%">
      <feGaussianBlur stdDeviation="2.5" result="blur"/>
      <feFlood flood-color="#42a5f5" flood-opacity="0.5" result="color"/>
      <feComposite in="color" in2="blur" operator="in" result="glow"/>
      <feMerge><feMergeNode in="glow"/><feMergeNode in="SourceGraphic"/></feMerge>
    </filter>
  <linearGradient id="shell" x1="0" y1="0" x2="1" y2="1">
    <stop offset="0%" stop-color="#e3f2fd"/><stop offset="100%" stop-color="#1565c0"/>
  </linearGradient>
</defs><g filter="url(#glow)">
  <ellipse cx="32" cy="38" rx="22" ry="16" fill="url(#shell)"/>
  <ellipse cx="32" cy="36" rx="18" ry="13" fill="url(#shell)"/>
  <path d="M20,30 L32,22 L44,30 L44,44 L32,50 L20,44 Z" fill="#42a5f5" opacity="0.4"/>
  <path d="M32,22 L44,30 M32,22 L20,30 M32,50 L20,44 M32,50 L44,44 M20,30 L20,44 M44,30 L44,44" stroke="#1565c0" stroke-width="1" opacity="0.5"/>
  <ellipse cx="20" cy="42" rx="5" ry="4" fill="#90caf9"/>
  <ellipse cx="44" cy="42" rx="5" ry="4" fill="#90caf9"/>
  <ellipse cx="24" cy="50" rx="5" ry="3.5" fill="#90caf9"/>
  <ellipse cx="40" cy="50" rx="5" ry="3.5" fill="#90caf9"/>
  <ellipse cx="32" cy="28" rx="8" ry="7" fill="#bbdefb"/>
  <circle cx="29" cy="26" r="2.5" fill="#0d47a1"/><circle cx="35" cy="26" r="2.5" fill="#0d47a1"/>
  <circle cx="29.5" cy="26" r="1" fill="white"/><circle cx="35.5" cy="26" r="1" fill="white"/>
  <path d="M30,31 Q32,33 34,31" stroke="#1565c0" stroke-width="1" fill="none"/>
</g>
</svg>