<svg xmlns="http://www.w3.org/2000/svg" viewBox="0 0 64 64" width="64" height="64">
  <defs>
    <filter id="shadow" x="-20%" y="-20%" width="140%" height="140%">
      <feDropShadow dx="0" dy="1.5" stdDeviation="1.5" flood-opacity="0.35"/>
    </filter>
  </defs>
  <defs></defs><g filter="url(#shadow)">
  <path d="M26,46 Q20,34 22,24 Q26,16 32,16 Q38,16 42,24 Q44,34 38,46 Z" fill="#66bb6a" opacity="0.6"/>
  <path d="M32,16 Q26,8 20,10 Q24,16 28,18" fill="#a5d6a7"/>
  <path d="M32,16 Q38,8 44,10 Q40,16 36,18" fill="#a5d6a7"/>
  <ellipse cx="32" cy="30" rx="10" ry="11" fill="#f8bbd0"/>
  <circle cx="29" cy="28" r="2.5" fill="#4a148c" opacity="0.8"/>
  <circle cx="35" cy="28" r="2.5" fill="#4a148c" opacity="0.8"/>
  <circle cx="29.5" cy="27.5" r="1" fill="white"/>
  <circle cx="35.5" cy="27.5" r="1" fill="white"/>
  <path d="M29,33 Q32,36 35,33" stroke="#e91e63" stroke-width="1.2" fill="none"/>
  <path d="M18,28 L22,26 M46,28 L42,26" stroke="#66bb6a" stroke-width="1.5" stroke-linecap="round"/>
  <circle cx="18" cy="28" r="2" fill="#69f0ae"/>
  <circle cx="46" cy="28" r="2" fill="#69f0ae"/>
</g>
</svg>