<svg xmlns="http://www.w3.org/2000/svg" viewBox="0 0 64 64" width="64" height="64">
  <defs>
    <filter id="shadow" x="-20%" y="-20%" width="140%" height="140%">
      <feDropShadow dx="0" dy="1.5" stdDeviation="1.5" flood-opacity="0.35"/>
    </filter>
  </defs>
  <defs><filter id="glow" x="-40%" y="-40%" width="180%" height="180%">
      <feGaussianBlur stdDeviation="2.5" result="blur"/>
      <feFlood flood-color="#ab47bc" flood-opacity="0.5" result="color"/>
      <feComposite in="color" in2="blur" operator="in" result="glow"/>
      <feMerge><feMergeNode in="glow"/><feMergeNode in="SourceGraphic"/></feMerge>
    </filter>
  <linearGradient id="fwolf" x1="0" y1="0" x2="1" y2="1">
    <stop offset="0%" stop-color="#e3f2fd"/><stop offset="100%" stop-color="#1565c0"/>
  </linearGradient>
</defs><g filter="url(#glow)">
  <ellipse cx="32" cy="42" rx="18" ry="14" fill="url(#fwolf)"/>
  <ellipse cx="28" cy="30" rx="12" ry="12" fill="#e3f2fd"/>
  <path d="M20,24 Q18,14 24,16" fill="#e3f2fd"/>
  <path d="M36,24 Q38,14 32,16" fill="#e3f2fd"/>
  <ellipse cx="20" cy="22" rx="5" ry="6" fill="#e3f2fd"/>
  <ellipse cx="36" cy="22" rx="5" ry="6" fill="#e3f2fd"/>
  <ellipse cx="20" cy="21" rx="3" ry="4" fill="#90caf9"/>
  <ellipse cx="36" cy="21" rx="3" ry="4" fill="#90caf9"/>
  <ellipse cx="28" cy="32" rx="6" ry="5" fill="white" opacity="0.8"/>
  <circle cx="25" cy="29" r="3" fill="#42a5f5"/><circle cx="31" cy="29" r="3" fill="#42a5f5"/>
  <circle cx="25" cy="29" r="1.5" fill="#0d47a1"/><circle cx="31" cy="29" r="1.5" fill="#0d47a1"/>
  <path d="M24,36 Q28,38 32,36" stroke="#90caf9" stroke-width="1.5" fill="none"/>
  <path d="M50,40 Q58,34 60,28 Q56,32 52,30" fill="#e3f2fd" opacity="0.7"/>
</g>
</svg>