<svg xmlns="http://www.w3.org/2000/svg" viewBox="0 0 64 64" shape-rendering="crispEdges">
  <rect x="46" y="22" width="12" height="5" fill="#aaccee"/>
  <rect x="50" y="16" width="10" height="8" fill="#aaccee"/>
  <rect x="54" y="12" width="8" height="6" fill="#cceeff"/>
  <rect x="56" y="10" width="6" height="4" fill="#ffffff"/>
  <rect x="14" y="28" width="36" height="20" fill="#aaccee"/>
  <rect x="10" y="32" width="42" height="14" fill="#aaccee"/>
  <rect x="18" y="36" width="26" height="10" fill="#cceeff"/>
  <rect x="4" y="20" width="26" height="22" fill="#aaccee"/>
  <rect x="2" y="24" width="6" height="14" fill="#aaccee"/>
  <rect x="2" y="26" width="14" height="12" fill="#cceeff"/>
  <rect x="2" y="26" width="8" height="4" fill="#1a1a1a"/>
  <rect x="2" y="32" width="14" height="6" fill="#cceeff"/>
  <rect x="4" y="30" width="4" height="8" fill="#ffffff"/>
  <rect x="10" y="30" width="4" height="7" fill="#ffffff"/>
  <rect x="12" y="22" width="10" height="8" fill="#ffffff"/>
  <rect x="14" y="23" width="6" height="5" fill="#88ccff"/>
  <rect x="15" y="24" width="3" height="3" fill="#000"/>
  <rect x="18" y="12" width="8" height="12" fill="#aaccee"/>
  <rect x="20" y="14" width="4" height="8" fill="#cc8888"/>
  <rect x="14" y="46" width="9" height="16" fill="#cceeff"/>
  <rect x="25" y="46" width="9" height="16" fill="#cceeff"/>
  <rect x="36" y="46" width="9" height="16" fill="#cceeff"/>
  <rect x="46" y="44" width="9" height="14" fill="#cceeff"/>
</svg>