<svg xmlns="http://www.w3.org/2000/svg" viewBox="0 0 64 64" shape-rendering="crispEdges">
  <rect x="44" y="28" width="14" height="4" fill="#cc2200"/>
  <rect x="48" y="22" width="10" height="8" fill="#cc2200"/>
  <rect x="14" y="26" width="34" height="22" fill="#cc2200"/>
  <rect x="10" y="30" width="40" height="14" fill="#cc2200"/>
  <rect x="18" y="36" width="22" height="10" fill="#ffaa00" opacity="0.4"/>
  <rect x="6" y="18" width="22" height="18" fill="#cc2200"/>
  <rect x="4" y="22" width="6" height="12" fill="#cc2200"/>
  <rect x="16" y="10" width="8" height="12" fill="#cc2200"/>
  <rect x="18" y="12" width="4" height="8" fill="#ffaa00" opacity="0.4"/>
  <rect x="8" y="20" width="10" height="8" fill="#ffaa00" opacity="0.8"/>
  <rect x="9" y="21" width="6" height="5" fill="#ffcc00"/>
  <rect x="10" y="22" width="3" height="3" fill="#1a0000"/>
  <rect x="4" y="26" width="12" height="10" fill="#ff4400"/>
  <rect x="4" y="28" width="10" height="4" fill="#cc2200"/>
  <rect x="14" y="28" width="8" height="6" fill="#cc8888"/>
  <rect x="14" y="46" width="8" height="16" fill="#ff4400"/>
  <rect x="24" y="46" width="8" height="16" fill="#ff4400"/>
  <rect x="34" y="46" width="8" height="16" fill="#ff4400"/>
  <rect x="44" y="44" width="8" height="14" fill="#ff4400"/>
  <rect x="12" y="60" width="10" height="4" fill="#cc2200"/>
  <rect x="22" y="60" width="10" height="4" fill="#cc2200"/>
  <rect x="6" y="14" width="4" height="4" fill="#ffaa00" opacity="0.4"/>
  <rect x="14" y="10" width="4" height="4" fill="#ffaa00" opacity="0.4"/>
</svg>