<svg xmlns="http://www.w3.org/2000/svg" viewBox="0 0 64 64" shape-rendering="crispEdges">
  <rect x="44" y="24" width="14" height="4" fill="#1a0028"/>
  <rect x="48" y="18" width="10" height="8" fill="#1a0028"/>
  <rect x="52" y="14" width="8" height="6" fill="#2d0050"/>
  <rect x="14" y="26" width="32" height="22" fill="#2d0050"/>
  <rect x="10" y="30" width="38" height="14" fill="#2d0050"/>
  <rect x="6" y="18" width="24" height="18" fill="#2d0050"/>
  <rect x="4" y="22" width="6" height="12" fill="#2d0050"/>
  <rect x="16" y="10" width="8" height="12" fill="#2d0050"/>
  <rect x="18" y="12" width="4" height="8" fill="#8800ff" opacity="0.5"/>
  <rect x="28" y="12" width="6" height="10" fill="#2d0050"/>
  <rect x="30" y="14" width="3" height="6" fill="#8800ff" opacity="0.5"/>
  <rect x="10" y="20" width="10" height="8" fill="#8800ff" opacity="0.8"/>
  <rect x="12" y="21" width="6" height="5" fill="#aa44ff"/>
  <rect x="13" y="22" width="3" height="3" fill="#000"/>
  <rect x="13" y="22" width="1" height="1" fill="#fff"/>
  <rect x="6" y="26" width="14" height="8" fill="#1a0028"/>
  <rect x="14" y="32" width="6" height="4" fill="#cc8080"/>
  <rect x="14" y="48" width="8" height="14" fill="#1a0028"/>
  <rect x="24" y="48" width="8" height="14" fill="#1a0028"/>
  <rect x="34" y="48" width="8" height="14" fill="#1a0028"/>
  <rect x="0" y="26" width="6" height="4" fill="#2d0050" opacity="0.5"/>
  <rect x="0" y="32" width="8" height="4" fill="#2d0050" opacity="0.5"/>
</svg>