<svg xmlns="http://www.w3.org/2000/svg" viewBox="0 0 64 64" width="64" height="64">
  <defs>
    <filter id="shadow" x="-20%" y="-20%" width="140%" height="140%">
      <feDropShadow dx="0" dy="1.5" stdDeviation="1.5" flood-opacity="0.35"/>
    </filter>
  </defs>
  <defs><filter id="glow" x="-40%" y="-40%" width="180%" height="180%">
      <feGaussianBlur stdDeviation="2.5" result="blur"/>
      <feFlood flood-color="#66bb6a" flood-opacity="0.5" result="color"/>
      <feComposite in="color" in2="blur" operator="in" result="glow"/>
      <feMerge><feMergeNode in="glow"/><feMergeNode in="SourceGraphic"/></feMerge>
    </filter></defs><g filter="url(#glow)">
  <ellipse cx="32" cy="44" rx="16" ry="12" fill="#37474f"/>
  <ellipse cx="32" cy="36" rx="12" ry="12" fill="#546e7a"/>
  <path d="M22,26 Q20,16 26,18" fill="#546e7a"/>
  <path d="M42,26 Q44,16 38,18" fill="#546e7a"/>
  <ellipse cx="22" cy="24" rx="4" ry="5" fill="#546e7a"/>
  <ellipse cx="42" cy="24" rx="4" ry="5" fill="#546e7a"/>
  <ellipse cx="22" cy="23" rx="2.5" ry="3" fill="#37474f"/>
  <ellipse cx="42" cy="23" rx="2.5" ry="3" fill="#37474f"/>
  <ellipse cx="29" cy="33" rx="4" ry="5" fill="#66bb6a" opacity="0.9"/>
  <ellipse cx="35" cy="33" rx="4" ry="5" fill="#66bb6a" opacity="0.9"/>
  <ellipse cx="29" cy="33" rx="1.5" ry="3" fill="#000"/>
  <ellipse cx="35" cy="33" rx="1.5" ry="3" fill="#000"/>
  <ellipse cx="32" cy="37" rx="4" ry="2.5" fill="#f5f5f5" opacity="0.5"/>
  <path d="M26,37 L22,38 M26,38 L22,39 M38,37 L42,38 M38,38 L42,39" stroke="#90a4ae" stroke-width="0.8"/>
  <path d="M48,44 Q56,38 58,46 Q56,52 50,50" fill="#546e7a"/>
</g>
</svg>