<svg xmlns="http://www.w3.org/2000/svg" viewBox="0 0 64 64" width="64" height="64">
  <defs>
    <filter id="shadow" x="-20%" y="-20%" width="140%" height="140%">
      <feDropShadow dx="0" dy="1.5" stdDeviation="1.5" flood-opacity="0.35"/>
    </filter>
  </defs>
  <defs><filter id="glow" x="-40%" y="-40%" width="180%" height="180%">
      <feGaussianBlur stdDeviation="2.5" result="blur"/>
      <feFlood flood-color="#66bb6a" flood-opacity="0.5" result="color"/>
      <feComposite in="color" in2="blur" operator="in" result="glow"/>
      <feMerge><feMergeNode in="glow"/><feMergeNode in="SourceGraphic"/></feMerge>
    </filter>
  <linearGradient id="hawk" x1="0" y1="0" x2="1" y2="1">
    <stop offset="0%" stop-color="#ffd54f"/><stop offset="100%" stop-color="#e65100"/>
  </linearGradient>
</defs><g filter="url(#glow)">
  <path d="M8,32 Q14,20 26,22 Q28,16 32,14 Q36,16 38,22 Q50,20 56,32 Q44,26 36,28 Q32,22 32,28 Q32,22 28,28 Q20,26 8,32" fill="url(#hawk)"/>
  <path d="M8,32 Q14,40 22,38 Q28,36 32,38 Q36,36 42,38 Q50,40 56,32" fill="#bf360c" opacity="0.5"/>
  <ellipse cx="32" cy="30" rx="8" ry="10" fill="#4e342e"/>
  <ellipse cx="32" cy="28" rx="6" ry="6" fill="#5d4037"/>
  <circle cx="29" cy="26" r="3" fill="#ffd54f"/><circle cx="35" cy="26" r="3" fill="#ffd54f"/>
  <circle cx="29" cy="26" r="1.5" fill="#000"/><circle cx="35" cy="26" r="1.5" fill="#000"/>
  <path d="M30,32 Q32,34 34,32" stroke="#ffd54f" stroke-width="1" fill="none"/>
  <path d="M29,35 Q32,40 35,35" fill="#e65100" stroke="none"/>
</g>
</svg>