<svg xmlns="http://www.w3.org/2000/svg" viewBox="0 0 64 64" shape-rendering="crispEdges">
  <rect x="2" y="22" width="22" height="4" fill="#4466aa"/>
  <rect x="2" y="16" width="14" height="8" fill="#4466aa"/>
  <rect x="2" y="12" width="8" height="6" fill="#6688cc"/>
  <rect x="40" y="22" width="22" height="4" fill="#4466aa"/>
  <rect x="48" y="16" width="14" height="8" fill="#4466aa"/>
  <rect x="54" y="12" width="8" height="6" fill="#6688cc"/>
  <rect x="18" y="18" width="28" height="28" fill="#4466aa"/>
  <rect x="14" y="22" width="36" height="20" fill="#4466aa"/>
  <rect x="22" y="12" width="20" height="10" fill="#4466aa"/>
  <rect x="26" y="8" width="12" height="6" fill="#4466aa"/>
  <rect x="24" y="14" width="8" height="8" fill="#aaccff" opacity="0.8"/>
  <rect x="34" y="14" width="8" height="8" fill="#aaccff" opacity="0.8"/>
  <rect x="26" y="15" width="4" height="5" fill="#fff"/>
  <rect x="36" y="15" width="4" height="5" fill="#fff"/>
  <rect x="27" y="16" width="2" height="3" fill="#000"/>
  <rect x="37" y="16" width="2" height="3" fill="#000"/>
  <rect x="28" y="22" width="8" height="6" fill="#cc8800"/>
  <rect x="30" y="26" width="4" height="6" fill="#cc8800"/>
  <rect x="22" y="44" width="8" height="14" fill="#6688cc"/>
  <rect x="34" y="44" width="8" height="14" fill="#6688cc"/>
  <rect x="20" y="56" width="4" height="4" fill="#cc8800"/>
  <rect x="25" y="56" width="4" height="4" fill="#cc8800"/>
  <rect x="34" y="56" width="4" height="4" fill="#cc8800"/>
  <rect x="39" y="56" width="4" height="4" fill="#cc8800"/>
</svg>