<svg xmlns="http://www.w3.org/2000/svg" viewBox="0 0 64 64" width="64" height="64">
  <defs>
    <filter id="shadow" x="-20%" y="-20%" width="140%" height="140%">
      <feDropShadow dx="0" dy="1.5" stdDeviation="1.5" flood-opacity="0.35"/>
    </filter>
  </defs>
  <defs></defs><g filter="url(#shadow)">
  <ellipse cx="32" cy="40" rx="16" ry="14" fill="#bdbdbd"/>
  <ellipse cx="32" cy="36" rx="12" ry="12" fill="#e0e0e0"/>
  <ellipse cx="24" cy="28" rx="7" ry="9" fill="#bdbdbd"/>
  <ellipse cx="23" cy="24" rx="5" ry="6" fill="#e0e0e0"/>
  <circle cx="22" cy="24" r="3.5" fill="#f48fb1" opacity="0.8"/>
  <ellipse cx="36" cy="28" rx="7" ry="9" fill="#bdbdbd"/>
  <ellipse cx="37" cy="24" rx="5" ry="6" fill="#e0e0e0"/>
  <circle cx="38" cy="24" r="3.5" fill="#f48fb1" opacity="0.8"/>
  <ellipse cx="28" cy="30" rx="5" ry="4" fill="#f5f5f5"/>
  <circle cx="27" cy="29" r="2" fill="#e53935"/><circle cx="33" cy="29" r="2" fill="#e53935"/>
  <circle cx="27.5" cy="29" r="1" fill="#000"/><circle cx="33.5" cy="29" r="1" fill="#000"/>
  <ellipse cx="26" cy="34" rx="2" ry="1" fill="#9e9e9e"/>
  <path d="M48,42 Q54,36 56,44 Q54,48 48,46" fill="#bdbdbd"/>
  <path d="M24,34 L20,35 M24,35 L20,36 M24,36 L20,37" stroke="#9e9e9e" stroke-width="0.8"/>
  <path d="M40,34 L44,35 M40,35 L44,36 M40,36 L44,37" stroke="#9e9e9e" stroke-width="0.8"/>
</g>
</svg>