<svg xmlns="http://www.w3.org/2000/svg" viewBox="0 0 64 64" shape-rendering="crispEdges">
  <rect x="42" y="36" width="16" height="4" fill="#8b6914"/>
  <rect x="46" y="30" width="12" height="8" fill="#8b6914"/>
  <rect x="16" y="28" width="30" height="20" fill="#aa8830"/>
  <rect x="12" y="32" width="36" height="12" fill="#aa8830"/>
  <rect x="8" y="22" width="22" height="16" fill="#aa8830"/>
  <rect x="6" y="26" width="6" height="10" fill="#aa8830"/>
  <rect x="6" y="26" width="12" height="10" fill="#8b6914"/>
  <rect x="4" y="26" width="4" height="3" fill="#cc3030"/>
  <rect x="4" y="30" width="12" height="1" fill="#ccaa50"/>
  <rect x="4" y="33" width="10" height="1" fill="#ccaa50"/>
  <rect x="14" y="22" width="8" height="6" fill="#cc8080"/>
  <rect x="18" y="24" width="6" height="6" fill="#cc8080"/>
  <rect x="10" y="24" width="8" height="6" fill="#cc3030"/>
  <rect x="12" y="25" width="4" height="4" fill="#ff4040"/>
  <rect x="13" y="26" width="2" height="2" fill="#fff"/>
  <rect x="16" y="40" width="8" height="14" fill="#8b6914"/>
  <rect x="26" y="40" width="8" height="14" fill="#8b6914"/>
  <rect x="36" y="40" width="8" height="14" fill="#8b6914"/>
</svg>