<svg xmlns="http://www.w3.org/2000/svg" viewBox="0 0 64 64" shape-rendering="crispEdges">
  <rect x="16" y="16" width="32" height="32" fill="#0a0020"/>
  <rect x="12" y="22" width="40" height="20" fill="#0a0020"/>
  <rect x="18" y="10" width="28" height="8" fill="#0a0020"/>
  <rect x="18" y="46" width="28" height="8" fill="#0a0020"/>
  <rect x="20" y="12" width="6" height="6" fill="#4400aa" opacity="0.7"/>
  <rect x="30" y="10" width="8" height="6" fill="#4400aa" opacity="0.9"/>
  <rect x="40" y="14" width="6" height="6" fill="#4400aa" opacity="0.7"/>
  <rect x="20" y="26" width="10" height="12" fill="#4400aa" opacity="0.8"/>
  <rect x="22" y="27" width="6" height="8" fill="#6633cc"/>
  <rect x="24" y="28" width="2" height="6" fill="#aa66ff"/>
  <rect x="34" y="26" width="10" height="12" fill="#4400aa" opacity="0.8"/>
  <rect x="36" y="27" width="6" height="8" fill="#6633cc"/>
  <rect x="38" y="28" width="2" height="6" fill="#aa66ff"/>
  <rect x="0" y="26" width="12" height="4" fill="#0a0020" opacity="0.6"/>
  <rect x="52" y="26" width="12" height="4" fill="#0a0020" opacity="0.6"/>
  <rect x="0" y="22" width="8" height="4" fill="#4400aa" opacity="0.3"/>
  <rect x="56" y="22" width="8" height="4" fill="#4400aa" opacity="0.3"/>
  <rect x="4" y="10" width="4" height="4" fill="#4400aa" opacity="0.3"/>
  <rect x="56" y="10" width="4" height="4" fill="#4400aa" opacity="0.3"/>
</svg>